<?xml version="1.0" encoding="UTF-8" standalone="no"?>
<!-- Generator: Adobe Illustrator 24.0.1, SVG Export Plug-In . SVG Version: 6.00 Build 0)  -->

<svg
   version="1.1"
   id="Capa_1"
   x="0px"
   y="0px"
   viewBox="0 0 439 163"
   style="enable-background:new 0 0 439 163;"
   xml:space="preserve"
   sodipodi:docname="00_UNC_01_COLOR.svg"
   inkscape:export-filename="unc_logo_full.pdf"
   inkscape:export-xdpi="96"
   inkscape:export-ydpi="96"
   inkscape:version="1.3 (1:1.3+202307231459+0e150ed6c4)"
   xmlns:inkscape="http://www.inkscape.org/namespaces/inkscape"
   xmlns:sodipodi="http://sodipodi.sourceforge.net/DTD/sodipodi-0.dtd"
   xmlns="http://www.w3.org/2000/svg"
   xmlns:svg="http://www.w3.org/2000/svg"><defs
   id="defs29">&#10;	&#10;	&#10;</defs><sodipodi:namedview
   id="namedview29"
   pagecolor="#ffffff"
   bordercolor="#000000"
   borderopacity="0.25"
   inkscape:showpageshadow="2"
   inkscape:pageopacity="0.0"
   inkscape:pagecheckerboard="0"
   inkscape:deskcolor="#d1d1d1"
   inkscape:zoom="0.9521767"
   inkscape:cx="301.41464"
   inkscape:cy="154.38311"
   inkscape:window-width="1878"
   inkscape:window-height="1019"
   inkscape:window-x="42"
   inkscape:window-y="24"
   inkscape:window-maximized="1"
   inkscape:current-layer="Capa_1" />&#10;<style
   type="text/css"
   id="style1">&#10;	.st0{fill:#121212;}&#10;	.st1{fill:#003764;}&#10;</style>&#10;<g
   id="g29"
   style="fill:#003764;fill-opacity:1"
   inkscape:export-filename="./g29.pdf"
   inkscape:export-xdpi="96"
   inkscape:export-ydpi="96">&#10;	<g
   id="g28"
   style="fill:#003764;fill-opacity:1">&#10;		<path
   class="st0"
   d="M296.76,69v11.08c0,1.3,0.25,2.38,0.74,3.25c0.73,1.3,1.96,1.95,3.68,1.95c2.07,0,3.48-0.7,4.23-2.11    c0.4-0.77,0.6-1.79,0.6-3.09V69h2.45v10.07c0,2.21-0.3,3.9-0.89,5.09c-1.09,2.16-3.16,3.25-6.19,3.25c-3.03,0-5.09-1.08-6.18-3.25    c-0.6-1.19-0.89-2.88-0.89-5.09V69H296.76z"
   id="path1"
   style="fill:#003764;fill-opacity:1" />&#10;		<path
   class="st0"
   d="M311.89,73.86h2.09v1.87c0.62-0.77,1.27-1.32,1.96-1.65c0.69-0.33,1.46-0.5,2.31-0.5    c1.85,0,3.11,0.65,3.76,1.94c0.36,0.71,0.54,1.72,0.54,3.04v8.38h-2.23v-8.23c0-0.8-0.12-1.44-0.35-1.93    c-0.39-0.81-1.1-1.22-2.12-1.22c-0.52,0-0.95,0.05-1.28,0.16c-0.6,0.18-1.13,0.54-1.59,1.07c-0.37,0.43-0.6,0.88-0.71,1.34    c-0.11,0.46-0.16,1.12-0.16,1.97v6.84h-2.2V73.86z"
   id="path2"
   style="fill:#003764;fill-opacity:1" />&#10;		<path
   class="st0"
   d="M325.8,69h2.23v2.48h-2.23V69z M325.8,73.92h2.23v13.02h-2.23V73.92z"
   id="path3"
   style="fill:#003764;fill-opacity:1" />&#10;		<path
   class="st0"
   d="M332.43,73.86l3.5,10.65l3.64-10.65h2.4l-4.93,13.08h-2.34l-4.83-13.08H332.43z"
   id="path4"
   style="fill:#003764;fill-opacity:1" />&#10;		<path
   class="st0"
   d="M351.93,74.23c0.87,0.43,1.53,1,1.98,1.68c0.44,0.66,0.73,1.42,0.87,2.3c0.13,0.6,0.19,1.56,0.19,2.88h-9.52    c0.04,1.33,0.35,2.4,0.93,3.2c0.58,0.8,1.48,1.21,2.7,1.21c1.14,0,2.05-0.38,2.73-1.14c0.38-0.44,0.65-0.95,0.81-1.53h2.16    c-0.06,0.48-0.25,1.01-0.57,1.6c-0.32,0.59-0.68,1.07-1.08,1.45c-0.66,0.65-1.48,1.09-2.46,1.32c-0.53,0.13-1.12,0.19-1.78,0.19    c-1.62,0-2.99-0.59-4.11-1.77c-1.12-1.18-1.69-2.84-1.69-4.97c0-2.1,0.57-3.8,1.7-5.11c1.13-1.31,2.61-1.96,4.44-1.96    C350.17,73.58,351.06,73.79,351.93,74.23z M352.71,79.34c-0.09-0.95-0.29-1.7-0.62-2.27c-0.6-1.05-1.59-1.58-2.99-1.58    c-1,0-1.84,0.36-2.52,1.09c-0.68,0.72-1.04,1.64-1.08,2.76H352.71z"
   id="path5"
   style="fill:#003764;fill-opacity:1" />&#10;		<path
   class="st0"
   d="M357.82,73.86h2.09v2.26c0.17-0.44,0.59-0.97,1.26-1.6c0.67-0.63,1.44-0.94,2.31-0.94    c0.04,0,0.11,0,0.21,0.01c0.1,0.01,0.27,0.03,0.5,0.05v2.31c-0.13-0.02-0.25-0.04-0.36-0.05c-0.11-0.01-0.23-0.01-0.36-0.01    c-1.11,0-1.96,0.36-2.56,1.07c-0.59,0.71-0.89,1.53-0.89,2.46v7.52h-2.2V73.86z"
   id="path6"
   style="fill:#003764;fill-opacity:1" />&#10;		<path
   class="st0"
   d="M367.39,82.83c0.07,0.73,0.25,1.29,0.56,1.69c0.56,0.71,1.54,1.06,2.94,1.06c0.83,0,1.56-0.18,2.19-0.53    c0.63-0.35,0.95-0.9,0.95-1.64c0-0.56-0.25-0.99-0.76-1.28c-0.32-0.18-0.96-0.39-1.91-0.62l-1.77-0.44    c-1.13-0.28-1.97-0.59-2.51-0.93c-0.96-0.59-1.44-1.42-1.44-2.47c0-1.24,0.45-2.24,1.36-3c0.9-0.76,2.12-1.15,3.64-1.15    c2,0,3.44,0.58,4.32,1.74c0.55,0.73,0.82,1.52,0.8,2.37h-2.08c-0.04-0.5-0.22-0.95-0.54-1.35c-0.52-0.58-1.41-0.87-2.69-0.87    c-0.85,0-1.49,0.16-1.93,0.48s-0.66,0.73-0.66,1.25c0,0.57,0.29,1.02,0.86,1.36c0.33,0.2,0.82,0.38,1.47,0.54l1.48,0.35    c1.61,0.38,2.69,0.75,3.24,1.11c0.85,0.56,1.28,1.44,1.28,2.65c0,1.16-0.45,2.17-1.34,3.02c-0.89,0.85-2.25,1.27-4.08,1.27    c-1.97,0-3.36-0.44-4.18-1.33c-0.82-0.88-1.26-1.98-1.32-3.28H367.39z"
   id="path7"
   style="fill:#003764;fill-opacity:1" />&#10;		<path
   class="st0"
   d="M378.58,69h2.23v2.48h-2.23V69z M378.58,73.92h2.23v13.02h-2.23V73.92z"
   id="path8"
   style="fill:#003764;fill-opacity:1" />&#10;		<path
   class="st0"
   d="M391.32,74.26c0.39,0.25,0.83,0.67,1.33,1.29v-6.61h2.11v18h-1.97V85.1c-0.51,0.81-1.12,1.39-1.81,1.75    c-0.7,0.36-1.5,0.54-2.4,0.54c-1.45,0-2.71-0.61-3.77-1.84c-1.06-1.22-1.59-2.85-1.59-4.89c0-1.9,0.48-3.55,1.45-4.95    c0.97-1.4,2.35-2.09,4.15-2.09C389.82,73.62,390.65,73.83,391.32,74.26z M386.41,84.05c0.59,0.94,1.54,1.41,2.84,1.41    c1.01,0,1.84-0.44,2.5-1.31c0.65-0.87,0.98-2.13,0.98-3.76c0-1.65-0.34-2.87-1.01-3.66c-0.67-0.79-1.5-1.19-2.49-1.19    c-1.1,0-1.99,0.42-2.68,1.27c-0.68,0.84-1.03,2.09-1.03,3.73C385.52,81.94,385.82,83.11,386.41,84.05z"
   id="path9"
   style="fill:#003764;fill-opacity:1" />&#10;		<path
   class="st0"
   d="M405.04,79.03c0.5-0.07,0.84-0.28,1.01-0.63c0.1-0.2,0.15-0.48,0.15-0.85c0-0.75-0.27-1.3-0.8-1.64    c-0.53-0.34-1.29-0.51-2.28-0.51c-1.14,0-1.95,0.31-2.43,0.93c-0.27,0.34-0.44,0.86-0.52,1.54h-2.05    c0.04-1.62,0.56-2.75,1.57-3.38c1-0.63,2.17-0.95,3.49-0.95c1.53,0,2.78,0.29,3.74,0.88c0.95,0.59,1.42,1.5,1.42,2.74v7.53    c0,0.23,0.05,0.41,0.14,0.55c0.09,0.14,0.29,0.21,0.59,0.21c0.1,0,0.21-0.01,0.33-0.02c0.12-0.01,0.25-0.03,0.39-0.05V87    c-0.34,0.1-0.6,0.16-0.78,0.18c-0.18,0.02-0.42,0.04-0.73,0.04c-0.76,0-1.31-0.27-1.65-0.8c-0.18-0.28-0.31-0.69-0.38-1.21    c-0.45,0.59-1.09,1.1-1.93,1.53c-0.84,0.43-1.76,0.65-2.77,0.65c-1.21,0-2.2-0.37-2.97-1.1c-0.77-0.74-1.15-1.66-1.15-2.76    c0-1.21,0.38-2.15,1.13-2.82c0.76-0.67,1.75-1.08,2.97-1.23L405.04,79.03z M400.42,84.96c0.46,0.37,1.01,0.55,1.64,0.55    c0.77,0,1.52-0.18,2.24-0.54c1.22-0.59,1.83-1.56,1.83-2.91V80.3c-0.27,0.17-0.61,0.32-1.03,0.43c-0.42,0.12-0.83,0.2-1.24,0.25    l-1.33,0.17c-0.79,0.1-1.39,0.27-1.79,0.5c-0.68,0.38-1.02,0.99-1.02,1.83C399.73,84.1,399.96,84.6,400.42,84.96z"
   id="path10"
   style="fill:#003764;fill-opacity:1" />&#10;		<path
   class="st0"
   d="M419.13,74.26c0.39,0.25,0.83,0.67,1.33,1.29v-6.61h2.11v18h-1.97V85.1c-0.51,0.81-1.12,1.39-1.81,1.75    c-0.7,0.36-1.5,0.54-2.4,0.54c-1.45,0-2.71-0.61-3.77-1.84c-1.06-1.22-1.59-2.85-1.59-4.89c0-1.9,0.48-3.55,1.45-4.95    c0.97-1.4,2.35-2.09,4.15-2.09C417.62,73.62,418.46,73.83,419.13,74.26z M414.22,84.05c0.59,0.94,1.54,1.41,2.84,1.41    c1.01,0,1.84-0.44,2.5-1.31c0.65-0.87,0.98-2.13,0.98-3.76c0-1.65-0.34-2.87-1.01-3.66c-0.67-0.79-1.5-1.19-2.49-1.19    c-1.1,0-1.99,0.42-2.68,1.27c-0.68,0.84-1.03,2.09-1.03,3.73C413.33,81.94,413.63,83.11,414.22,84.05z"
   id="path11"
   style="fill:#003764;fill-opacity:1" />&#10;		<path
   class="st0"
   d="M294.14,96.15h2.86l8.96,14.5v-14.5h2.31v17.94h-2.72l-9.09-14.51v14.51h-2.31V96.15z"
   id="path12"
   style="fill:#003764;fill-opacity:1" />&#10;		<path
   class="st0"
   d="M318.89,106.18c0.5-0.07,0.84-0.28,1.01-0.63c0.1-0.2,0.15-0.48,0.15-0.85c0-0.75-0.27-1.3-0.8-1.64    c-0.53-0.34-1.29-0.51-2.28-0.51c-1.14,0-1.95,0.31-2.43,0.93c-0.27,0.34-0.44,0.86-0.52,1.54h-2.05    c0.04-1.62,0.56-2.75,1.57-3.38c1-0.63,2.17-0.95,3.49-0.95c1.53,0,2.78,0.29,3.74,0.88c0.95,0.59,1.43,1.5,1.43,2.74v7.53    c0,0.23,0.05,0.41,0.14,0.55c0.09,0.14,0.29,0.21,0.59,0.21c0.1,0,0.21-0.01,0.33-0.02c0.12-0.01,0.25-0.03,0.39-0.05v1.62    c-0.34,0.1-0.6,0.16-0.78,0.18c-0.18,0.02-0.42,0.04-0.73,0.04c-0.76,0-1.31-0.27-1.65-0.8c-0.18-0.28-0.31-0.69-0.38-1.21    c-0.45,0.59-1.09,1.1-1.93,1.53c-0.84,0.43-1.76,0.65-2.77,0.65c-1.21,0-2.2-0.37-2.97-1.1c-0.77-0.74-1.15-1.66-1.15-2.76    c0-1.21,0.38-2.15,1.13-2.82c0.76-0.67,1.75-1.08,2.97-1.23L318.89,106.18z M314.27,112.12c0.46,0.37,1.01,0.55,1.64,0.55    c0.77,0,1.52-0.18,2.24-0.54c1.22-0.59,1.83-1.56,1.83-2.91v-1.77c-0.27,0.17-0.61,0.32-1.03,0.43c-0.42,0.12-0.83,0.2-1.24,0.25    l-1.33,0.17c-0.79,0.1-1.39,0.27-1.79,0.5c-0.68,0.38-1.02,0.99-1.02,1.83C313.58,111.25,313.81,111.75,314.27,112.12z"
   id="path13"
   style="fill:#003764;fill-opacity:1" />&#10;		<path
   class="st0"
   d="M334.43,101.71c0.92,0.71,1.48,1.95,1.67,3.69h-2.14c-0.13-0.8-0.43-1.47-0.89-2    c-0.46-0.53-1.21-0.8-2.23-0.8c-1.4,0-2.4,0.68-3,2.05c-0.39,0.89-0.58,1.98-0.58,3.28c0,1.31,0.28,2.41,0.83,3.3    c0.55,0.89,1.42,1.34,2.61,1.34c0.91,0,1.63-0.28,2.16-0.83c0.53-0.55,0.9-1.31,1.1-2.28h2.14c-0.24,1.73-0.86,3-1.83,3.8    c-0.98,0.8-2.22,1.2-3.75,1.2c-1.71,0-3.07-0.62-4.09-1.87c-1.02-1.25-1.52-2.81-1.52-4.68c0-2.29,0.56-4.08,1.67-5.36    c1.11-1.28,2.53-1.92,4.26-1.92C332.31,100.63,333.5,100.99,334.43,101.71z"
   id="path14"
   style="fill:#003764;fill-opacity:1" />&#10;		<path
   class="st0"
   d="M338.3,96.15h2.23v2.48h-2.23V96.15z M338.3,101.07h2.23v13.02h-2.23V101.07z"
   id="path15"
   style="fill:#003764;fill-opacity:1" />&#10;		<path
   class="st0"
   d="M353.32,102.32c1.15,1.12,1.73,2.77,1.73,4.95c0,2.11-0.51,3.85-1.53,5.22c-1.02,1.38-2.6,2.06-4.74,2.06    c-1.79,0-3.2-0.61-4.25-1.82s-1.58-2.85-1.58-4.9c0-2.2,0.55-3.94,1.66-5.25c1.11-1.3,2.59-1.95,4.46-1.95    C350.75,100.63,352.17,101.19,353.32,102.32z M351.96,111.01c0.53-1.1,0.8-2.33,0.8-3.68c0-1.22-0.19-2.21-0.58-2.98    c-0.61-1.2-1.66-1.81-3.16-1.81c-1.33,0-2.29,0.51-2.89,1.54c-0.6,1.02-0.9,2.26-0.9,3.71c0,1.39,0.3,2.55,0.9,3.48    c0.6,0.93,1.56,1.39,2.87,1.39C350.44,112.66,351.42,112.11,351.96,111.01z"
   id="path16"
   style="fill:#003764;fill-opacity:1" />&#10;		<path
   class="st0"
   d="M357.75,101.01h2.09v1.87c0.62-0.77,1.27-1.32,1.96-1.65c0.69-0.33,1.46-0.5,2.31-0.5    c1.85,0,3.11,0.65,3.76,1.94c0.36,0.71,0.54,1.72,0.54,3.04v8.38h-2.23v-8.23c0-0.8-0.12-1.44-0.35-1.93    c-0.39-0.81-1.1-1.22-2.12-1.22c-0.52,0-0.95,0.05-1.28,0.16c-0.6,0.18-1.13,0.54-1.58,1.07c-0.37,0.43-0.6,0.88-0.71,1.34    c-0.11,0.46-0.16,1.12-0.16,1.97v6.84h-2.2V101.01z"
   id="path17"
   style="fill:#003764;fill-opacity:1" />&#10;		<path
   class="st0"
   d="M378.66,106.18c0.5-0.07,0.84-0.28,1.01-0.63c0.1-0.2,0.15-0.48,0.15-0.85c0-0.75-0.27-1.3-0.8-1.64    c-0.53-0.34-1.29-0.51-2.28-0.51c-1.14,0-1.95,0.31-2.43,0.93c-0.27,0.34-0.44,0.86-0.52,1.54h-2.05    c0.04-1.62,0.56-2.75,1.57-3.38c1-0.63,2.17-0.95,3.49-0.95c1.53,0,2.78,0.29,3.74,0.88c0.95,0.59,1.42,1.5,1.42,2.74v7.53    c0,0.23,0.05,0.41,0.14,0.55c0.09,0.14,0.29,0.21,0.59,0.21c0.1,0,0.21-0.01,0.33-0.02c0.12-0.01,0.25-0.03,0.39-0.05v1.62    c-0.34,0.1-0.6,0.16-0.78,0.18s-0.42,0.04-0.73,0.04c-0.76,0-1.31-0.27-1.65-0.8c-0.18-0.28-0.31-0.69-0.38-1.21    c-0.45,0.59-1.09,1.1-1.93,1.53c-0.84,0.43-1.76,0.65-2.77,0.65c-1.21,0-2.2-0.37-2.97-1.1s-1.15-1.66-1.15-2.76    c0-1.21,0.38-2.15,1.13-2.82c0.76-0.67,1.75-1.08,2.98-1.23L378.66,106.18z M374.04,112.12c0.46,0.37,1.01,0.55,1.64,0.55    c0.77,0,1.52-0.18,2.24-0.54c1.22-0.59,1.83-1.56,1.83-2.91v-1.77c-0.27,0.17-0.61,0.32-1.03,0.43c-0.42,0.12-0.83,0.2-1.24,0.25    l-1.33,0.17c-0.79,0.1-1.39,0.27-1.79,0.5c-0.68,0.38-1.02,0.99-1.02,1.83C373.35,111.25,373.58,111.75,374.04,112.12z"
   id="path18"
   style="fill:#003764;fill-opacity:1" />&#10;		<path
   class="st0"
   d="M385.62,96.15h2.2v17.94h-2.2V96.15z"
   id="path19"
   style="fill:#003764;fill-opacity:1" />&#10;		<path
   class="st0"
   d="M301.03,128.56c0.39,0.24,0.83,0.67,1.33,1.29v-6.61h2.11v18h-1.97v-1.83c-0.51,0.81-1.12,1.39-1.81,1.75    c-0.7,0.36-1.5,0.54-2.4,0.54c-1.45,0-2.71-0.61-3.77-1.84c-1.06-1.22-1.59-2.85-1.59-4.89c0-1.9,0.48-3.55,1.45-4.95    c0.97-1.4,2.35-2.09,4.15-2.09C299.52,127.92,300.36,128.13,301.03,128.56z M296.12,138.35c0.59,0.94,1.54,1.41,2.84,1.41    c1.01,0,1.84-0.44,2.5-1.31c0.65-0.87,0.98-2.13,0.98-3.76c0-1.65-0.34-2.87-1.01-3.66c-0.67-0.79-1.5-1.19-2.49-1.19    c-1.1,0-1.99,0.42-2.68,1.27c-0.68,0.85-1.03,2.09-1.03,3.73C295.23,136.24,295.52,137.41,296.12,138.35z"
   id="path20"
   style="fill:#003764;fill-opacity:1" />&#10;		<path
   class="st0"
   d="M315.82,128.53c0.87,0.43,1.53,1,1.98,1.69c0.44,0.66,0.73,1.42,0.87,2.3c0.13,0.6,0.19,1.56,0.19,2.88h-9.52    c0.04,1.33,0.35,2.4,0.93,3.2c0.58,0.8,1.48,1.21,2.7,1.21c1.14,0,2.05-0.38,2.73-1.14c0.38-0.44,0.65-0.95,0.81-1.53h2.16    c-0.06,0.48-0.25,1.01-0.57,1.6c-0.32,0.59-0.68,1.07-1.08,1.45c-0.66,0.65-1.48,1.09-2.46,1.32c-0.53,0.13-1.12,0.2-1.78,0.2    c-1.62,0-2.99-0.59-4.11-1.77c-1.12-1.18-1.69-2.84-1.69-4.97c0-2.1,0.57-3.8,1.7-5.11c1.13-1.31,2.61-1.96,4.44-1.96    C314.06,127.88,314.95,128.09,315.82,128.53z M316.6,133.64c-0.09-0.95-0.29-1.7-0.62-2.27c-0.6-1.05-1.59-1.58-2.99-1.58    c-1,0-1.84,0.36-2.52,1.08c-0.68,0.72-1.04,1.64-1.08,2.76H316.6z"
   id="path21"
   style="fill:#003764;fill-opacity:1" />&#10;		<path
   class="st0"
   d="M341.57,124.61c1.24,1.2,1.93,2.56,2.07,4.08h-2.38c-0.26-1.16-0.79-2.07-1.58-2.75    c-0.79-0.68-1.89-1.01-3.32-1.01c-1.74,0-3.14,0.62-4.21,1.86c-1.07,1.24-1.6,3.14-1.6,5.7c0,2.1,0.48,3.8,1.45,5.1    c0.96,1.31,2.4,1.96,4.32,1.96c1.76,0,3.1-0.69,4.02-2.06c0.49-0.72,0.85-1.67,1.09-2.85h2.38c-0.21,1.89-0.9,3.47-2.08,4.75    c-1.41,1.54-3.31,2.31-5.7,2.31c-2.06,0-3.79-0.63-5.19-1.89c-1.84-1.67-2.77-4.25-2.77-7.73c0-2.65,0.69-4.82,2.08-6.51    c1.5-1.84,3.56-2.76,6.19-2.76C338.59,122.81,340.33,123.41,341.57,124.61z"
   id="path22"
   style="fill:#003764;fill-opacity:1" />&#10;		<path
   class="st0"
   d="M356.12,129.47c1.16,1.12,1.73,2.77,1.73,4.95c0,2.11-0.51,3.85-1.53,5.22c-1.02,1.37-2.6,2.06-4.74,2.06    c-1.79,0-3.2-0.61-4.25-1.82c-1.05-1.22-1.58-2.85-1.58-4.9c0-2.2,0.55-3.95,1.66-5.25c1.11-1.3,2.59-1.95,4.46-1.95    C353.55,127.78,354.96,128.34,356.12,129.47z M354.75,138.16c0.53-1.1,0.8-2.33,0.8-3.68c0-1.22-0.19-2.21-0.58-2.98    c-0.61-1.2-1.66-1.8-3.16-1.8c-1.33,0-2.29,0.51-2.89,1.54c-0.6,1.02-0.9,2.26-0.9,3.71c0,1.39,0.3,2.55,0.9,3.48    c0.6,0.93,1.56,1.39,2.87,1.39C353.23,139.81,354.22,139.26,354.75,138.16z M355.11,122.91l-3.25,3.53h-1.68l2.23-3.53H355.11z"
   id="path23"
   style="fill:#003764;fill-opacity:1" />&#10;		<path
   class="st0"
   d="M360.61,128.16h2.09v2.26c0.17-0.44,0.59-0.97,1.26-1.6c0.67-0.63,1.44-0.94,2.31-0.94    c0.04,0,0.11,0,0.21,0.01c0.1,0.01,0.26,0.03,0.5,0.05v2.31c-0.13-0.02-0.25-0.04-0.36-0.05c-0.11-0.01-0.23-0.01-0.36-0.01    c-1.11,0-1.96,0.36-2.56,1.07c-0.6,0.71-0.89,1.53-0.89,2.46v7.52h-2.2V128.16z"
   id="path24"
   style="fill:#003764;fill-opacity:1" />&#10;		<path
   class="st0"
   d="M376.07,128.56c0.39,0.24,0.83,0.67,1.33,1.29v-6.61h2.11v18h-1.97v-1.83c-0.51,0.81-1.12,1.39-1.81,1.75    c-0.7,0.36-1.5,0.54-2.4,0.54c-1.45,0-2.71-0.61-3.77-1.84c-1.06-1.22-1.59-2.85-1.59-4.89c0-1.9,0.48-3.55,1.45-4.95    c0.97-1.4,2.35-2.09,4.15-2.09C374.56,127.92,375.39,128.13,376.07,128.56z M371.15,138.35c0.59,0.94,1.54,1.41,2.84,1.41    c1.01,0,1.84-0.44,2.5-1.31c0.65-0.87,0.98-2.13,0.98-3.76c0-1.65-0.34-2.87-1.01-3.66c-0.67-0.79-1.5-1.19-2.49-1.19    c-1.1,0-1.99,0.42-2.68,1.27c-0.68,0.85-1.03,2.09-1.03,3.73C370.27,136.24,370.56,137.41,371.15,138.35z"
   id="path25"
   style="fill:#003764;fill-opacity:1" />&#10;		<path
   class="st0"
   d="M392.25,129.47c1.16,1.12,1.73,2.77,1.73,4.95c0,2.11-0.51,3.85-1.53,5.22c-1.02,1.37-2.6,2.06-4.74,2.06    c-1.79,0-3.2-0.61-4.25-1.82c-1.05-1.22-1.58-2.85-1.58-4.9c0-2.2,0.55-3.95,1.66-5.25c1.11-1.3,2.59-1.95,4.46-1.95    C389.68,127.78,391.09,128.34,392.25,129.47z M390.88,138.16c0.53-1.1,0.8-2.33,0.8-3.68c0-1.22-0.19-2.21-0.58-2.98    c-0.61-1.2-1.66-1.8-3.16-1.8c-1.33,0-2.29,0.51-2.89,1.54c-0.6,1.02-0.9,2.26-0.9,3.71c0,1.39,0.3,2.55,0.9,3.48    c0.6,0.93,1.56,1.39,2.87,1.39C389.36,139.81,390.35,139.26,390.88,138.16z"
   id="path26"
   style="fill:#003764;fill-opacity:1" />&#10;		<path
   class="st0"
   d="M396.5,123.24h2.14v6.51c0.48-0.63,1.06-1.11,1.73-1.44c0.67-0.33,1.4-0.5,2.18-0.5    c1.63,0,2.96,0.56,3.97,1.68c1.02,1.12,1.53,2.77,1.53,4.95c0,2.07-0.5,3.79-1.51,5.16c-1,1.37-2.4,2.05-4.18,2.05    c-1,0-1.84-0.24-2.52-0.72c-0.41-0.28-0.84-0.74-1.31-1.37v1.66h-2.03V123.24z M404.89,138.3c0.59-0.95,0.89-2.19,0.89-3.74    c0-1.38-0.3-2.52-0.89-3.42c-0.59-0.9-1.46-1.36-2.61-1.36c-1,0-1.88,0.37-2.64,1.11c-0.75,0.74-1.13,1.96-1.13,3.67    c0,1.23,0.15,2.23,0.46,3c0.58,1.44,1.66,2.16,3.24,2.16C403.41,139.72,404.3,139.25,404.89,138.3z"
   id="path27"
   style="fill:#003764;fill-opacity:1" />&#10;		<path
   class="st0"
   d="M417.58,133.33c0.5-0.06,0.84-0.28,1.01-0.63c0.1-0.2,0.15-0.48,0.15-0.85c0-0.75-0.27-1.3-0.8-1.64    c-0.53-0.34-1.29-0.51-2.28-0.51c-1.14,0-1.95,0.31-2.43,0.93c-0.27,0.34-0.44,0.86-0.52,1.54h-2.05    c0.04-1.62,0.56-2.74,1.56-3.38c1-0.63,2.17-0.95,3.49-0.95c1.53,0,2.78,0.29,3.74,0.88c0.95,0.59,1.42,1.5,1.42,2.74V139    c0,0.23,0.05,0.41,0.14,0.55c0.09,0.14,0.29,0.21,0.59,0.21c0.1,0,0.21-0.01,0.33-0.02c0.12-0.01,0.25-0.03,0.39-0.05v1.62    c-0.34,0.1-0.6,0.16-0.78,0.18s-0.42,0.04-0.73,0.04c-0.76,0-1.31-0.27-1.65-0.8c-0.18-0.28-0.31-0.69-0.38-1.21    c-0.45,0.59-1.09,1.1-1.93,1.53c-0.84,0.43-1.76,0.65-2.77,0.65c-1.21,0-2.2-0.37-2.97-1.1c-0.77-0.74-1.15-1.66-1.15-2.76    c0-1.21,0.38-2.15,1.13-2.82c0.76-0.67,1.75-1.08,2.97-1.23L417.58,133.33z M412.97,139.26c0.46,0.37,1.01,0.55,1.64,0.55    c0.77,0,1.52-0.18,2.24-0.54c1.22-0.59,1.83-1.56,1.83-2.91v-1.77c-0.27,0.17-0.61,0.32-1.03,0.43c-0.42,0.12-0.83,0.2-1.24,0.24    l-1.33,0.17c-0.79,0.1-1.39,0.27-1.79,0.5c-0.68,0.38-1.02,0.99-1.02,1.83C412.27,138.4,412.51,138.9,412.97,139.26z"
   id="path28"
   style="fill:#003764;fill-opacity:1" />&#10;	</g>&#10;	<path
   class="st1"
   d="M75.25,103.63h-1.31c0,1.42-0.84,2.64-2.05,3.19c0.31,0.36,0.63,0.69,0.95,0.98   C74.28,106.97,75.25,105.42,75.25,103.63z M73.36,108.27c0.03,0.02,0.05,0.04,0.08,0.07c0.41,0.32,0.81,0.6,1.21,0.82   c1.53-0.81,2.57-2.41,2.57-4.26h-1.31C75.92,106.5,74.84,107.85,73.36,108.27z M72.39,75.57c0,0-1.5,0-1.87,0   c-0.26-0.26-1.32-1.32-1.32-1.32s-1.06,1.06-1.32,1.32c-0.37,0-1.87,0-1.87,0s0,1.5,0,1.87c-0.26,0.26-1.32,1.32-1.32,1.32   s1.06,1.06,1.32,1.32c0,0.36,0,1.87,0,1.87s1.5,0,1.87,0c0.26,0.26,1.32,1.32,1.32,1.32s1.06-1.06,1.32-1.32c0.37,0,1.87,0,1.87,0   s0-1.5,0-1.87c0.26-0.26,1.32-1.32,1.32-1.32s-1.06-1.06-1.32-1.32C72.39,77.07,72.39,75.57,72.39,75.57z M71.06,79.53   c0,0,0,0.69,0,1.09c-0.4,0-1.09,0-1.09,0s-0.48,0.48-0.77,0.77c-0.28-0.29-0.77-0.77-0.77-0.77s-0.69,0-1.09,0c0-0.4,0-1.09,0-1.09   s-0.49-0.49-0.77-0.77c0.29-0.29,0.77-0.77,0.77-0.77s0-0.69,0-1.09c0.4,0,1.09,0,1.09,0s0.49-0.48,0.77-0.77   c0.29,0.29,0.77,0.77,0.77,0.77s0.69,0,1.09,0c0,0.4,0,1.09,0,1.09s0.49,0.49,0.77,0.77C71.55,79.04,71.06,79.53,71.06,79.53z    M81.29,61.61c-0.1-0.08-0.19-0.15-0.42-0.21l-0.53-0.12c-0.15-0.04-0.2-0.07-0.25-0.1l-0.04-0.02c-0.08-0.04-0.11-0.1-0.11-0.18   c0-0.1,0.04-0.17,0.12-0.22c0.09-0.06,0.21-0.09,0.36-0.09c0.25,0,0.51,0.15,0.65,0.28L81.13,61l0.35-0.61l-0.05-0.04   c-0.23-0.17-0.58-0.37-0.97-0.37c-0.4,0-0.72,0.1-0.93,0.29c-0.21,0.19-0.32,0.44-0.32,0.73c0,0.32,0.11,0.56,0.34,0.71   c0.14,0.09,0.27,0.17,0.59,0.24l0.33,0.07c0.14,0.03,0.19,0.06,0.25,0.1l0.05,0.03c0.07,0.04,0.1,0.1,0.1,0.18   c0,0.14-0.07,0.23-0.23,0.29c-0.09,0.03-0.21,0.05-0.35,0.05c-0.28,0-0.61-0.19-0.7-0.3l-0.06-0.07l-0.35,0.6l0.04,0.04   c0.22,0.18,0.59,0.39,1.09,0.39c0.41,0,0.73-0.1,0.95-0.29c0.23-0.2,0.34-0.45,0.34-0.74c0-0.29-0.1-0.52-0.29-0.67L81.29,61.61z    M78.1,61.25h-1.04c0-0.12,0-1.16,0-1.16h-0.77v3.18h0.77c0,0,0-1.24,0-1.36h1.04c0,0.12,0,1.36,0,1.36h0.77v-3.18H78.1   C78.1,60.08,78.1,61.13,78.1,61.25z M74.88,63.27h0.77v-3.18h-0.77V63.27z M77.2,59.87h0.77c0,0,0-1.21,0-1.33   c0.11,0,0.67,0,0.67,0v-0.66c0,0-0.56,0-0.67,0c0-0.11,0-0.67,0-0.67H77.2c0,0,0,0.55,0,0.67c-0.11,0-0.67,0-0.67,0v0.66   c0,0,0.56,0,0.67,0C77.2,58.67,77.2,59.87,77.2,59.87z M68.95,98.66L68.95,98.66l-0.01,0.13c0,1.43,1.16,2.59,2.6,2.59l0.44,0v1.01   c-0.01,1.12-0.54,2.11-1.37,2.75c0.25,0.38,0.51,0.73,0.77,1.06c1.16-0.88,1.9-2.27,1.9-3.83v-2.28h-1.74   c-0.72,0-1.29-0.58-1.29-1.29l0.01-0.14c0-0.58-0.39-1.08-0.92-1.24l0,0c-0.5-0.18-0.85-0.66-0.85-1.21c0-0.03,0-0.16,0.03-0.28   c0.02-0.07,0.06-0.16,0.06-0.39c0-0.49-0.27-0.91-0.67-1.13l0,0c-1.06-0.6-1.77-1.74-1.77-3.05c0-0.25,0.02-0.49,0.07-0.72   l4.17,1.18l4.27,5.07l2.21-1.96l0-2.92h-1.36c0,0,0.62-1.32,2.13-1.32c1.4,0,2.11,1.01,2.35,1.96l1.01,3.79l3.88-4.61l4.17-1.18   c0.05,0.23,0.08,0.47,0.08,0.72c0,1.3-0.71,2.44-1.77,3.05l0,0c-0.4,0.22-0.67,0.64-0.67,1.13c0,0.22,0.04,0.31,0.06,0.39   c0.03,0.12,0.03,0.24,0.03,0.28c0,0.56-0.36,1.04-0.85,1.21v0c-0.53,0.16-0.92,0.65-0.92,1.24l0.01,0.14c0,0.71-0.58,1.29-1.3,1.29   h-3.2c0,0,0.11,2.27-1.62,4.1c-0.39,0.41-0.98,1.52-0.33,2.89c0.68,1.44,2.06,2.08,2.06,2.08c0.5-0.26,1.29-0.89,1.29-0.89   c-1.17-0.34-1.8-1.09-2.19-1.79c-0.3-0.54-0.14-1.16,0.23-1.51c0.51-0.48,1.1-1.5,1.34-2.12c0.31-0.79,0.43-1.47,0.43-1.47l1.98,0   c1.43,0,2.6-1.16,2.6-2.59v-0.13h0c1.03-0.35,1.77-1.32,1.77-2.46c0-0.22-0.03-0.44-0.08-0.65c1.46-0.83,2.44-2.4,2.44-4.19   c0-0.83-0.21-1.61-0.58-2.3l-5.72,1.59l-2.57,3.06c0,0-0.21-0.66-0.37-1.39c-0.35-1.55-1.46-2.21-1.46-2.21l1.36-2.96l-2.22,0.44   l-1.23-1.67l-1.26,1.67l-2.18-0.45l1.36,2.96c-0.89,0.61-1.54,1.63-1.54,2.97c0,0.1,0.01,0.27,0.01,0.27h1.52l0.01,0.97l-0.75,0.68   l-3.65-4.34l-5.72-1.59c-0.37,0.68-0.58,1.46-0.58,2.3c0,1.8,0.98,3.36,2.44,4.19c-0.05,0.21-0.08,0.42-0.08,0.65   C67.19,97.34,67.93,98.31,68.95,98.66z M77.02,89.06l0.6-0.85l0.6,0.85l0.61-0.12l-0.28,0.62c0,0-0.51-0.12-0.92-0.12   c-0.41,0-0.92,0.12-0.92,0.12l-0.28-0.62L77.02,89.06z M46.75,94.88c-0.92,1.88-0.99,4.27-0.99,4.96c0,1.71,0.47,6.05,4.81,9.52   c2.01,1.61,3.71,1.96,5.34,2.31c1.14,0.24,2.21,0.47,3.46,1.09c2.76,1.38,3.72,2.63,4.49,3.63l0.15,0.19   c4.8,6.19,11.14,6.86,13.63,6.86c2.49,0,8.83-0.67,13.63-6.86l0.15-0.19c0.77-1,1.73-2.26,4.49-3.63c1.25-0.62,2.33-0.85,3.46-1.09   c1.64-0.35,3.33-0.71,5.34-2.31c4.34-3.47,4.81-7.82,4.81-9.52c0-0.69-0.07-3.08-0.99-4.96c-0.82-1.68-1.25-3.45-1.4-5.94   l3.51-3.51l-3.96-3.96h-4.21c-0.58-1.03-1.41-1.8-2.47-2.27c1.48-0.4,2.51-1.6,2.51-3.01c0-0.06,0-0.13-0.01-0.19   c-0.1-1.54-1.09-3.28-3.51-3.29c-0.11-0.24-0.28-0.72-0.34-1.62c-0.01-0.1-0.01-0.2-0.01-0.3c0-1.09,0.36-2.37,0.77-3.84   c0.51-1.84,1.09-3.9,1.09-6.13c0-0.27-0.01-0.54-0.03-0.82c-0.19-2.91-1.29-5.33-3.18-6.99c-1.91-1.67-4.56-2.49-7.47-2.29   c-0.52,0.03-1.02,0.12-1.49,0.25c0.46-0.33,0.81-0.7,1.01-1.09l5.12-8.69l-0.81-1.71l-1.9,0.09c0,0-0.33,0.54-0.47,0.78   c-0.24-0.14-0.81-0.48-0.81-0.48l-1.62,0.91l0.1,1.82c0,0,0.5,0.32,0.71,0.46c-0.17,0.28-0.22,0.37-0.4,0.67   c-0.62-0.44-1.65-1.11-2.91-1.65c0.14-0.53,0.29-1.09,0.45-1.67c0.3,0.08,0.94,0.26,0.94,0.26l1.48-1.29l-0.62-1.86   c0,0-0.65-0.18-0.95-0.26c0.08-0.3,0.26-0.95,0.26-0.95l-1.29-1.48l-1.86,0.62c0,0-0.18,0.65-0.26,0.95   c-0.3-0.08-0.94-0.26-0.94-0.26l-1.5,1.28l0.64,1.87c0,0,0.64,0.18,0.94,0.26c-0.15,0.54-0.27,0.98-0.41,1.51   c-0.76-0.17-2.13-0.44-3.73-0.56v-1.94c0.39,0,1.14,0,1.14,0l1.25-1.88l-1.25-1.88c0,0-0.75,0-1.14,0c0-0.39,0-1.12,0-1.12   l-1.88-1.34l-1.88,1.34c0,0,0,0.74,0,1.12c-0.39,0-1.14,0-1.14,0l-1.25,1.88l1.25,1.88c0,0,0.75,0,1.14,0v1.94   c-1.59,0.12-2.96,0.39-3.73,0.56c-0.14-0.52-0.27-0.97-0.41-1.51c0.3-0.08,0.94-0.26,0.94-0.26l0.64-1.87l-1.5-1.28   c0,0-0.64,0.18-0.94,0.26c-0.08-0.3-0.26-0.95-0.26-0.95l-1.86-0.62l-1.29,1.48c0,0,0.18,0.65,0.26,0.95   c-0.3,0.08-0.95,0.26-0.95,0.26l-0.62,1.86l1.48,1.29c0,0,0.64-0.18,0.94-0.26c0.16,0.58,0.31,1.14,0.45,1.67   c-1.26,0.54-2.29,1.21-2.91,1.65c-0.18-0.3-0.23-0.39-0.4-0.67c0.21-0.13,0.71-0.46,0.71-0.46l0.1-1.82l-1.62-0.91   c0,0-0.57,0.34-0.81,0.48c-0.14-0.24-0.47-0.78-0.47-0.78l-1.9-0.09l-0.81,1.71l5.11,8.67c0.2,0.4,0.55,0.77,1.02,1.11   c-0.47-0.13-0.97-0.22-1.49-0.25c-2.91-0.19-5.56,0.62-7.47,2.29c-1.89,1.66-2.99,4.07-3.18,6.99c-0.02,0.27-0.03,0.55-0.03,0.82   c0,2.23,0.58,4.29,1.09,6.13c0.41,1.47,0.77,2.75,0.77,3.84c0,0.1,0,0.2-0.01,0.3c-0.06,0.9-0.23,1.39-0.34,1.62   c-2.42,0.01-3.41,1.75-3.51,3.29c-0.01,0.06-0.01,0.13-0.01,0.19c0,1.41,1.03,2.61,2.51,3.01c-1.06,0.47-1.89,1.24-2.47,2.27h-4.21   l-3.96,3.96l3.51,3.51C48,91.43,47.57,93.2,46.75,94.88z M107.07,83.74l1.69,1.69l-1.69,1.69c0-0.14,0-0.27,0-0.41V83.74z    M101.32,82.13c0.06,0.1,0.11,0.2,0.16,0.3c0.05,0.12,0.11,0.24,0.15,0.36c0.35,0.91,0.46,1.93,0.46,2.88   c0,1.72-0.4,3.76-0.97,5.82c-1.07,3.81-2.74,7.67-3.65,9.64c-0.35-0.84-0.94-2.24-0.94-2.24s-1.56,0.41-2.54,0.66   c0.99-1.55,2.65-4.18,4.45-7.1c1.18-1.92,2.03-4.6,2.03-6.88c0-0.92-0.14-1.77-0.45-2.48c-0.07-0.17-0.15-0.34-0.25-0.5   c0,0,0-0.01,0-0.01l0,0c-0.51-0.84-1.39-1.46-2.57-1.46c-1.59,0-2.65,1.32-2.65,2.55h1.33c0-0.04,0-0.08,0.01-0.12   c0.07-0.5,0.52-1.09,1.31-1.09c0.59,0,1.01,0.26,1.28,0.61c0.07,0.09,0.13,0.17,0.18,0.27c0.04,0.07,0.07,0.14,0.1,0.21   c0.12,0.28,0.17,0.57,0.17,0.82c0,1.48-1.01,2.44-2.57,2.44c-1.79,0-3.09-1.33-3.09-3.17c0-1.48,1.22-3.66,3.84-3.66   C99.34,79.96,100.61,80.88,101.32,82.13z M63.5,83.89c0.05-6.17,1.15-12.01,3.13-16.78v6.67c0,0,2.04-2.04,2.58-2.58   c0.54,0.54,2.58,2.6,2.58,2.6v-5.89l12.51,8.25h-10.1c0,0,2.04,2.04,2.57,2.58c-0.53,0.54-2.57,2.58-2.57,2.58l17.5,0   c0.05,0.85,0.08,1.7,0.08,2.56H63.5z M91.77,85.22c-0.11,7.13-1.61,13.79-4.25,18.84c-2.68,5.11-6.19,7.93-9.88,7.93   c-3.69,0-7.2-2.82-9.88-7.93c-2.64-5.05-4.14-11.71-4.25-18.84H91.77z M59.8,68.6c-0.36-1.58-0.72-3.21-0.72-5.35   c0-0.41,0.01-0.84,0.04-1.29c0.24-3.56,2.32-5.07,3.54-5.65c0.38-0.18,0.77-0.31,1.16-0.41c-0.42,0.54-0.7,1.23-0.74,1.92   c-0.01,0.1-0.01,0.2-0.01,0.3c0,2.09,1.49,3.63,3.71,3.77c0.38,0.03,0.75,0.01,1.11-0.05c-0.45,0.69-0.89,1.43-1.3,2.22   c-2.38,4.54-3.86,10.32-4.29,16.57c-0.85-1.11-2.18-1.93-3.88-2c0.94-0.73,1.79-2.17,1.98-4.97c0.02-0.26,0.02-0.52,0.02-0.78   C60.42,71.35,60.11,70.01,59.8,68.6z M83.74,57.64c0,0.03,0.01,0.06,0.01,0.09c-0.91-0.72-1.85-1.28-2.82-1.66   c-0.02-0.62,0.01-1.9,0.6-2.99c1.73-0.22,3.35-0.57,4.68-1.05c-0.31,0.24-0.61,0.52-0.87,0.82C84.2,54.13,83.62,55.88,83.74,57.64z    M77.64,51.99c-6.21,0-10.25-1.76-10.55-2.78c0,0,0,0,0,0c-0.01-0.04-0.02-0.08-0.02-0.11c0-1.53,4.21-3.84,10.57-3.84   c6.35,0,10.57,2.31,10.57,3.84C88.2,50.09,84.09,51.99,77.64,51.99z M80,53.23c-0.32,0.89-0.4,1.77-0.42,2.42   c-0.64-0.15-1.29-0.22-1.95-0.22s-1.31,0.07-1.95,0.22c-0.01-0.64-0.1-1.53-0.42-2.42c0.79,0.06,1.58,0.09,2.37,0.09   C78.42,53.32,79.22,53.29,80,53.23z M73.76,53.08c0.58,1.09,0.62,2.37,0.6,2.99c-0.97,0.39-1.92,0.94-2.82,1.66   c0-0.03,0.01-0.06,0.01-0.09c0.12-1.76-0.46-3.51-1.59-4.8c-0.27-0.3-0.56-0.58-0.87-0.82C70.4,52.51,72.03,52.86,73.76,53.08z    M77.64,56.75c3.69,0,7.2,2.82,9.88,7.93c1.44,2.76,2.54,6,3.27,9.53L70.36,60.73C72.55,58.14,75.05,56.75,77.64,56.75z    M91.12,76.03c0.18,1.09,0.32,2.2,0.43,3.33L68.17,63.93c0.44-0.78,0.9-1.5,1.38-2.15L91.12,76.03z M77.39,77.5   c2.05,0,7.62,0,8.92,0L90.1,80c-3.67,0-10.8,0-12.71,0c0.38-0.38,1.25-1.25,1.25-1.25S77.77,77.87,77.39,77.5z M70.46,67.03v3.54   c-0.38-0.38-1.25-1.26-1.25-1.26s-0.88,0.87-1.25,1.25v-5.19L70.46,67.03z M88.69,64.07c-0.41-0.79-0.85-1.53-1.3-2.22   c0.36,0.06,0.73,0.08,1.12,0.05c2.22-0.15,3.7-1.68,3.7-3.77c0-0.1,0-0.2-0.01-0.3c-0.04-0.69-0.32-1.38-0.74-1.92   c0.39,0.09,0.78,0.23,1.16,0.41c1.22,0.58,3.31,2.08,3.54,5.65c0.03,0.45,0.04,0.88,0.04,1.29c0,2.14-0.37,3.77-0.73,5.35   c-0.32,1.41-0.62,2.75-0.62,4.3c0,0.25,0.01,0.51,0.03,0.78c0.19,2.8,1.04,4.24,1.97,4.97c-1.7,0.07-3.03,0.89-3.88,2   C92.55,74.39,91.07,68.61,88.69,64.07z M89.91,52.04c2.56-0.17,4.87,0.53,6.51,1.97c1.62,1.42,2.57,3.52,2.74,6.07   c0.15,2.31-0.47,4.54-1.02,6.5c-0.46,1.65-0.89,3.21-0.8,4.58c0.13,1.96,0.73,2.59,0.92,2.73l0.2,0.16l0.26-0.02   c2.1-0.14,2.43,1.38,2.48,2.04c0.06,1-0.85,1.84-2.08,1.92c-2.14,0.14-2.75-2.33-2.89-4.42c-0.11-1.69,0.2-3.08,0.56-4.7   c0.43-1.89,0.91-4.03,0.71-7.02c-0.2-3.1-1.77-5.56-4.3-6.76c-1.98-0.94-4.22-0.91-5.59,0.07l0.01,0.01   c-0.77,0.5-1.23,1.35-1.23,2.17c0,0.05,0,0.1,0.01,0.14l1.33-0.09c-0.03-0.52,0.39-1.28,1.27-1.34c0.47-0.03,0.88,0.1,1.21,0.39   c0.47,0.41,0.67,1.03,0.69,1.44c0.1,1.51-0.86,2.55-2.46,2.66c-0.9,0.06-1.7-0.19-2.31-0.72c-0.62-0.55-0.99-1.34-1.05-2.3   c-0.09-1.41,0.37-2.81,1.27-3.83C87.21,52.72,88.45,52.14,89.91,52.04z M66.2,47.71c-1.31-2.23-3.64-6.18-3.88-6.59   c0.06-0.12,0.07-0.14,0.13-0.27c0.14,0.01,0.17,0.01,0.3,0.01c0.18,0.31,0.79,1.31,0.79,1.31s0.98-0.59,1.29-0.77   c0.1,0.06,0.12,0.07,0.23,0.12c-0.01,0.15-0.01,0.17-0.02,0.31c-0.28,0.18-1.22,0.79-1.22,0.79l1.84,3.07l0.6-0.49   c0.02-0.01,1.63-1.34,3.7-2.11l0.57-0.21l-1.11-4.11c0,0-1.19,0.33-1.55,0.42c-0.12-0.1-0.15-0.13-0.28-0.24   c0.05-0.16,0.07-0.2,0.11-0.35c0.36-0.1,1.54-0.42,1.54-0.42s-0.33-1.18-0.42-1.54c0.1-0.12,0.13-0.15,0.24-0.28   c0.16,0.05,0.2,0.07,0.35,0.12c0.1,0.36,0.42,1.54,0.42,1.54s1.19-0.33,1.54-0.42c0.12,0.1,0.15,0.13,0.28,0.24   c-0.06,0.17-0.07,0.2-0.12,0.35c-0.36,0.1-1.55,0.42-1.55,0.42l1.11,4.05l0.64-0.18c0.02,0,2.18-0.59,4.72-0.72l0.63-0.03v-4.53   c0,0-1.35,0-1.76,0c-0.13-0.2-0.21-0.31-0.36-0.55c0.15-0.23,0.23-0.34,0.36-0.55c0.4,0,1.76,0,1.76,0s0-1.37,0-1.77   c0.19-0.14,0.31-0.22,0.55-0.39c0.24,0.17,0.35,0.25,0.55,0.39c0,0.4,0,1.77,0,1.77s1.35,0,1.76,0c0.14,0.2,0.21,0.31,0.36,0.55   c-0.15,0.23-0.23,0.34-0.36,0.55c-0.4,0-1.76,0-1.76,0v4.53l0.63,0.03c2.54,0.13,4.7,0.71,4.72,0.72l0.64,0.18l1.11-4.05   c0,0-1.19-0.33-1.55-0.42c-0.05-0.15-0.06-0.18-0.12-0.35c0.13-0.11,0.16-0.14,0.28-0.24c0.36,0.1,1.54,0.42,1.54,0.42   s0.32-1.18,0.42-1.54c0.15-0.05,0.18-0.06,0.35-0.12c0.11,0.13,0.14,0.16,0.24,0.28c-0.1,0.36-0.42,1.54-0.42,1.54   s1.18,0.33,1.54,0.42c0.05,0.15,0.06,0.18,0.11,0.35c-0.13,0.11-0.16,0.14-0.28,0.24c-0.36-0.1-1.55-0.42-1.55-0.42l-1.11,4.11   l0.57,0.21c2.07,0.78,3.69,2.1,3.7,2.11l0.6,0.49l0.4-0.66l1.44-2.41c0,0-0.94-0.6-1.22-0.79c-0.01-0.13-0.01-0.16-0.02-0.31   c0.11-0.06,0.12-0.07,0.22-0.12c0.31,0.19,1.29,0.77,1.29,0.77s0.6-1,0.79-1.31c0.13-0.01,0.16-0.01,0.3-0.01   c0.06,0.13,0.07,0.16,0.13,0.27c-0.24,0.4-2.57,4.36-3.88,6.59c-1.44-2.15-6.09-3.78-11.44-3.78   C72.29,43.93,67.64,45.55,66.2,47.71z M54.1,76.08c0.04-0.66,0.37-2.18,2.48-2.04l0.26,0.02l0.2-0.16   c0.18-0.15,0.79-0.77,0.92-2.73c0.09-1.37-0.34-2.93-0.8-4.58c-0.55-1.96-1.17-4.19-1.02-6.5c0.17-2.55,1.11-4.65,2.74-6.07   c1.64-1.44,3.95-2.14,6.51-1.97c1.46,0.1,2.7,0.68,3.58,1.68c0.9,1.02,1.36,2.42,1.27,3.83c-0.06,0.96-0.43,1.75-1.05,2.3   c-0.61,0.53-1.4,0.78-2.31,0.72c-1.59-0.11-2.56-1.15-2.46-2.66c0.03-0.41,0.22-1.03,0.69-1.44c0.33-0.29,0.73-0.42,1.21-0.39   c0.88,0.06,1.31,0.82,1.27,1.34l1.33,0.09c0-0.05,0-0.1,0-0.14c0-0.82-0.46-1.67-1.23-2.17l0.01-0.01c-1.37-0.98-3.62-1-5.59-0.07   c-2.53,1.2-4.09,3.66-4.3,6.76c-0.2,2.99,0.29,5.13,0.71,7.02c0.36,1.61,0.68,3,0.56,4.7c-0.14,2.09-0.75,4.56-2.89,4.42   C54.94,77.93,54.03,77.08,54.1,76.08z M53.65,82.79c0.05-0.12,0.1-0.24,0.15-0.36c0.05-0.1,0.1-0.21,0.16-0.3   c0.7-1.25,1.98-2.17,4.21-2.17c2.62,0,3.84,2.18,3.84,3.66c0,1.84-1.3,3.17-3.09,3.17c-1.56,0-2.57-0.96-2.57-2.44   c0-0.24,0.06-0.54,0.17-0.82c0.03-0.07,0.07-0.15,0.1-0.21c0.05-0.09,0.11-0.18,0.18-0.27c0.27-0.35,0.69-0.61,1.28-0.61   c0.8,0,1.25,0.6,1.32,1.09c0,0.04,0.01,0.08,0.01,0.12h1.33c0-1.23-1.07-2.55-2.65-2.55c-1.17,0-2.05,0.62-2.57,1.46v0   c0,0,0,0.01-0.01,0.01c-0.1,0.16-0.18,0.33-0.25,0.5c-0.31,0.72-0.45,1.56-0.45,2.48c0,2.28,0.84,4.96,2.03,6.88   c1.8,2.92,3.47,5.56,4.45,7.1c-0.98-0.25-2.54-0.66-2.54-0.66s-0.58,1.4-0.93,2.24c-0.91-1.97-2.59-5.83-3.65-9.64   c-0.58-2.06-0.97-4.1-0.97-5.82C53.19,84.72,53.3,83.71,53.65,82.79z M52.87,96.46c0.24-0.6,0.49-1.22,0.65-1.84l0.03-0.12   c0.02-0.09,0.04-0.17,0.06-0.26c1.53,4.56,3.51,8.56,3.65,8.83l0.65,1.3c0,0,1.32-3.16,1.62-3.89c0.8,0.21,4.71,1.23,4.71,1.23   l-0.92-1.43c-0.02-0.04-2.53-3.92-5.35-8.51c-0.85-1.37-1.42-3.01-1.68-4.53c0.67,0.57,1.57,0.91,2.62,0.91   c1.34,0,2.5-0.55,3.3-1.44c0.28,6.79,1.81,13.12,4.36,18c2.92,5.57,6.84,8.64,11.06,8.64c4.21,0,8.14-3.07,11.06-8.64   c2.56-4.89,4.08-11.21,4.36-18c0.8,0.9,1.96,1.44,3.3,1.44c1.05,0,1.95-0.34,2.62-0.91c-0.25,1.52-0.83,3.16-1.68,4.53   c-2.83,4.59-5.33,8.47-5.35,8.51l-0.92,1.43c0,0,3.92-1.02,4.71-1.23c0.3,0.73,1.62,3.89,1.62,3.89l0.65-1.3   c0.14-0.27,2.12-4.27,3.65-8.83c0.02,0.09,0.04,0.18,0.07,0.26l0.03,0.12c0.15,0.63,0.4,1.25,0.64,1.84   c0.42,1.05,0.86,2.13,0.86,3.38c0,0.8-0.26,4.82-5.42,5.82c-2.79,0.54-4.88,1.26-7.9,3.48c-1.84,1.35-2.86,2.66-3.61,3.62   c-0.25,0.33-0.47,0.61-0.68,0.84c-3.11,3.45-7.22,3.62-8.02,3.62c-0.79,0-4.91-0.17-8.02-3.62c-0.21-0.23-0.43-0.51-0.68-0.84   c-0.74-0.96-1.76-2.27-3.61-3.62c-3.02-2.22-5.11-2.93-7.9-3.48c-5.16-1-5.42-5.03-5.42-5.82C52.02,98.59,52.45,97.51,52.87,96.46z    M49.53,86.7v-3.91h2.71c-0.26,0.84-0.39,1.81-0.39,2.88c0,1.77,0.38,3.84,0.94,5.91c-0.16,1.05-0.37,1.87-0.55,2.6l-0.03,0.12   c-0.13,0.54-0.35,1.08-0.59,1.67c-0.45,1.11-0.95,2.37-0.95,3.88c0,2.71,1.7,6.2,6.49,7.13c2.66,0.52,4.53,1.16,7.37,3.24   c1.69,1.24,2.61,2.42,3.34,3.37c0.26,0.33,0.5,0.65,0.74,0.92c3.48,3.86,8.11,4.06,9,4.06c0.89,0,5.52-0.2,9-4.06   c0.24-0.27,0.49-0.58,0.74-0.92c0.73-0.95,1.65-2.12,3.34-3.37c2.84-2.08,4.71-2.73,7.37-3.24c4.79-0.93,6.5-4.42,6.5-7.13   c0-1.51-0.51-2.76-0.96-3.88c-0.23-0.58-0.45-1.13-0.59-1.67l-0.03-0.12c-0.18-0.73-0.38-1.55-0.55-2.6   c0.56-2.07,0.94-4.13,0.94-5.91c0-1.07-0.13-2.03-0.39-2.88h2.71v3.91c0,3.97,0.45,6.42,1.59,8.76c0.63,1.29,0.86,3.1,0.86,4.37   c0,1.51-0.42,5.38-4.31,8.48c-1.76,1.41-3.23,1.72-4.79,2.05c-1.17,0.25-2.38,0.51-3.78,1.2c-3.03,1.51-4.14,2.96-4.95,4.01   l-0.14,0.18c-4.44,5.73-10.28,6.35-12.58,6.35c-2.3,0-8.14-0.62-12.58-6.35l-0.14-0.18c-0.81-1.05-1.92-2.5-4.95-4.01   c-1.4-0.7-2.61-0.96-3.78-1.2c-1.56-0.33-3.03-0.64-4.79-2.05c-3.89-3.11-4.31-6.97-4.31-8.48c0-1.27,0.23-3.09,0.86-4.37   C49.09,93.13,49.53,90.67,49.53,86.7z M46.51,85.43l1.69-1.69v2.97c0,0.14,0,0.28,0,0.41L46.51,85.43z M12.43,12.91v130.17h260.34   V12.91H12.43z M140.83,141.3H14.21V14.69h126.62V141.3z M192,80.12c0,7.25-4.02,11.17-9.94,11.17c-6.47,0-10.33-3.85-10.33-11.1   V65.7h4.41v14.45c0,4.8,2.07,7.25,6.02,7.25c3.89,0,5.95-2.49,5.95-7.35V65.7H192V80.12z M218.49,91.28h-0.46l-15.99-16.56v15.75   h-4.2V64.89h0.46l15.96,16.55V65.7h4.23V91.28z M242.89,88.87c-2.2,1.57-4.76,2.42-7.45,2.42c-2.83,0-5.53-0.95-7.7-2.7   c-3.04-2.45-4.79-6.16-4.79-10.5c0-7.63,5.42-13.23,12.6-13.23c2.62,0,5.01,0.77,7.28,2.34l-0.46,4.83   c-1.96-2.1-4.09-3.15-6.54-3.15c-4.83,0-8.4,3.71-8.4,9.17c0,5.22,3.4,9,8.16,9c2.76,0,5.14-1.22,7.56-3.67L242.89,88.87z"
   id="path29"
   style="fill:#003764;fill-opacity:1" />&#10;</g>&#10;<path
   id="path58"
   class="st1"
   d="M 64.824219 236.66797 L 62.945312 238.00781 L 62.945312 239.12695 L 61.804688 239.12695 L 60.554688 241.00781 L 61.804688 242.88672 L 62.945312 242.88672 L 62.945312 244.82812 C 61.355314 244.94812 59.984843 245.21672 59.214844 245.38672 C 59.074844 244.86672 58.944687 244.41695 58.804688 243.87695 C 59.104687 243.79695 59.746094 243.61719 59.746094 243.61719 L 60.384766 241.74805 L 58.884766 240.4668 C 58.884766 240.4668 58.245312 240.64656 57.945312 240.72656 C 57.865313 240.42656 57.685547 239.77734 57.685547 239.77734 L 55.824219 239.1582 L 54.535156 240.63672 C 54.535156 240.63672 54.714922 241.28789 54.794922 241.58789 C 54.494922 241.66789 53.845703 241.84766 53.845703 241.84766 L 53.224609 243.70703 L 54.705078 244.99805 C 54.705078 244.99805 55.344532 244.81828 55.644531 244.73828 C 55.804531 245.31828 55.955703 245.8782 56.095703 246.4082 C 54.835704 246.9482 53.805546 247.61664 53.185547 248.05664 C 53.005547 247.75664 52.955156 247.66672 52.785156 247.38672 C 52.995156 247.25672 53.496094 246.92773 53.496094 246.92773 L 53.595703 245.10742 L 51.974609 244.19727 C 51.974609 244.19727 51.406015 244.53773 51.166016 244.67773 C 51.026016 244.43773 50.695312 243.89844 50.695312 243.89844 L 48.794922 243.80664 L 47.984375 245.51758 L 53.095703 254.1875 C 53.295703 254.5875 53.645235 254.95688 54.115234 255.29688 C 53.645235 255.16688 53.144999 255.07687 52.625 255.04688 C 49.715003 254.85688 47.064295 255.66789 45.154297 257.33789 C 43.264299 258.99789 42.164609 261.40813 41.974609 264.32812 C 41.954609 264.59812 41.945312 264.87844 41.945312 265.14844 C 41.945312 267.37844 42.525157 269.43735 43.035156 271.27734 C 43.445156 272.74734 43.804687 274.02719 43.804688 275.11719 C 43.804688 275.21719 43.804922 275.31797 43.794922 275.41797 C 43.734922 276.31797 43.565078 276.80711 43.455078 277.03711 C 41.035081 277.04711 40.045312 278.78813 39.945312 280.32812 C 39.935313 280.38812 39.935547 280.45758 39.935547 280.51758 C 39.935547 281.92758 40.965314 283.12734 42.445312 283.52734 C 41.385314 283.99734 40.554609 284.76688 39.974609 285.79688 L 35.765625 285.79688 L 31.804688 289.75781 L 35.314453 293.26758 C 35.204453 295.75758 34.775077 297.52703 33.955078 299.20703 C 33.035079 301.08703 32.964844 303.47797 32.964844 304.16797 C 32.964844 305.87797 33.435395 310.2175 37.775391 313.6875 C 39.785389 315.2975 41.485236 315.64805 43.115234 315.99805 C 44.255233 316.23805 45.32422 316.46789 46.574219 317.08789 C 49.334216 318.46789 50.294454 319.7168 51.064453 320.7168 L 51.214844 320.9082 C 56.014839 327.0982 62.355706 327.76758 64.845703 327.76758 C 67.335701 327.76758 73.674614 327.0982 78.474609 320.9082 L 78.625 320.7168 C 79.394999 319.7168 80.355237 318.45789 83.115234 317.08789 C 84.365233 316.46789 85.44422 316.23805 86.574219 315.99805 C 88.214217 315.64805 89.906018 315.2875 91.916016 313.6875 C 96.256011 310.2175 96.724609 305.86797 96.724609 304.16797 C 96.724609 303.47797 96.654374 301.08703 95.734375 299.20703 C 94.914376 297.52703 94.485937 295.75758 94.335938 293.26758 L 97.845703 289.75781 L 93.884766 285.79688 L 89.675781 285.79688 C 89.095782 284.76688 88.265077 283.99734 87.205078 283.52734 C 88.685077 283.12734 89.714844 281.92758 89.714844 280.51758 C 89.714844 280.45758 89.715078 280.38812 89.705078 280.32812 C 89.605078 278.78813 88.61531 277.04711 86.195312 277.03711 C 86.085313 276.79711 85.915469 276.31797 85.855469 275.41797 C 85.845469 275.31797 85.845703 275.21719 85.845703 275.11719 C 85.845703 274.02719 86.205235 272.74734 86.615234 271.27734 C 87.125234 269.43735 87.705078 267.37844 87.705078 265.14844 C 87.705078 264.87844 87.695781 264.60812 87.675781 264.32812 C 87.485781 261.41813 86.386092 258.99789 84.496094 257.33789 C 82.586096 255.66789 79.935388 254.84688 77.025391 255.04688 C 76.505391 255.07687 76.005156 255.16688 75.535156 255.29688 C 75.995156 254.96688 76.344922 254.59703 76.544922 254.20703 L 81.666016 245.51758 L 80.855469 243.80664 L 78.955078 243.89844 C 78.955078 243.89844 78.624375 244.43773 78.484375 244.67773 C 78.244375 244.53773 77.675781 244.19727 77.675781 244.19727 L 76.054688 245.10742 L 76.154297 246.92773 C 76.154297 246.92773 76.655235 247.24672 76.865234 247.38672 C 76.695235 247.66672 76.644844 247.75664 76.464844 248.05664 C 75.844844 247.61664 74.814686 246.9482 73.554688 246.4082 C 73.694687 245.8782 73.84586 245.31828 74.005859 244.73828 C 74.305859 244.81828 74.945312 244.99805 74.945312 244.99805 L 76.425781 243.70703 L 75.804688 241.84766 C 75.804688 241.84766 75.155468 241.66789 74.855469 241.58789 C 74.935469 241.28789 75.115234 240.63672 75.115234 240.63672 L 73.824219 239.1582 L 71.964844 239.77734 C 71.964844 239.77734 71.785078 240.42656 71.705078 240.72656 C 71.405078 240.64656 70.765625 240.4668 70.765625 240.4668 L 69.265625 241.74805 L 69.904297 243.61719 C 69.904297 243.61719 70.545703 243.79695 70.845703 243.87695 C 70.695703 244.41695 70.575547 244.85672 70.435547 245.38672 C 69.675548 245.21672 68.305077 244.94812 66.705078 244.82812 L 66.705078 242.88672 L 67.845703 242.88672 L 69.095703 241.00781 L 67.845703 239.12695 L 66.705078 239.12695 L 66.705078 238.00781 L 64.824219 236.66797 z M 64.835938 238.26758 C 65.075937 238.43758 65.184766 238.5182 65.384766 238.6582 L 65.384766 240.42773 L 67.144531 240.42773 C 67.284531 240.62773 67.35586 240.73656 67.505859 240.97656 C 67.35586 241.20656 67.274531 241.31734 67.144531 241.52734 L 65.384766 241.52734 L 65.384766 246.05664 L 66.015625 246.08789 C 68.555622 246.21789 70.714375 246.79664 70.734375 246.80664 L 71.375 246.98828 L 72.484375 242.9375 C 72.484375 242.9375 71.295547 242.60758 70.935547 242.51758 C 70.885547 242.36758 70.874453 242.33797 70.814453 242.16797 C 70.944453 242.05797 70.975703 242.02773 71.095703 241.92773 C 71.455703 242.02773 72.634766 242.34766 72.634766 242.34766 C 72.634766 242.34766 72.954688 241.16664 73.054688 240.80664 C 73.204687 240.75664 73.234297 240.7475 73.404297 240.6875 C 73.514297 240.8175 73.544531 240.8468 73.644531 240.9668 C 73.544531 241.3268 73.224609 242.50781 73.224609 242.50781 C 73.224609 242.50781 74.405625 242.83773 74.765625 242.92773 C 74.815625 243.07773 74.825 243.10734 74.875 243.27734 C 74.745 243.38734 74.715703 243.41758 74.595703 243.51758 C 74.235703 243.41758 73.044922 243.09766 73.044922 243.09766 L 71.935547 247.20703 L 72.505859 247.41797 C 74.575857 248.19797 76.195078 249.51734 76.205078 249.52734 L 76.804688 250.01758 L 77.205078 249.35742 L 78.644531 246.94727 C 78.644531 246.94727 77.705781 246.3482 77.425781 246.1582 C 77.415781 246.0282 77.414297 245.99766 77.404297 245.84766 C 77.514297 245.78766 77.525 245.77656 77.625 245.72656 C 77.935 245.91656 78.916016 246.49805 78.916016 246.49805 C 78.916016 246.49805 79.515078 245.4975 79.705078 245.1875 C 79.835078 245.1775 79.86586 245.17773 80.005859 245.17773 C 80.065859 245.30773 80.074766 245.33727 80.134766 245.44727 C 79.894766 245.84727 77.565858 249.80711 76.255859 252.03711 C 74.815861 249.88711 70.164448 248.25781 64.814453 248.25781 C 59.494458 248.25781 54.844295 249.87711 53.404297 252.03711 C 52.094298 249.80711 49.76539 245.85727 49.525391 245.44727 C 49.585391 245.32727 49.594297 245.30773 49.654297 245.17773 C 49.794297 245.18773 49.825078 245.1875 49.955078 245.1875 C 50.135078 245.4975 50.746094 246.49805 50.746094 246.49805 C 50.746094 246.49805 51.725157 245.90656 52.035156 245.72656 C 52.135156 245.78656 52.155625 245.79766 52.265625 245.84766 C 52.255625 245.99766 52.256094 246.0182 52.246094 246.1582 C 51.966094 246.3382 51.025391 246.94727 51.025391 246.94727 L 52.865234 250.01758 L 53.464844 249.52734 C 53.484844 249.51734 55.096018 248.18797 57.166016 247.41797 L 57.734375 247.20703 L 56.625 243.09766 C 56.625 243.09766 55.434218 243.42758 55.074219 243.51758 C 54.954219 243.41758 54.924922 243.38734 54.794922 243.27734 C 54.844922 243.11734 54.864297 243.07773 54.904297 242.92773 C 55.264297 242.82773 56.445313 242.50781 56.445312 242.50781 C 56.445312 242.50781 56.115391 241.3268 56.025391 240.9668 C 56.125391 240.8468 56.155625 240.8175 56.265625 240.6875 C 56.425625 240.7375 56.465235 240.75664 56.615234 240.80664 C 56.715234 241.16664 57.035156 242.34766 57.035156 242.34766 C 57.035156 242.34766 58.224219 242.01773 58.574219 241.92773 C 58.694219 242.02773 58.725469 242.05797 58.855469 242.16797 C 58.795469 242.33797 58.784375 242.36758 58.734375 242.51758 C 58.374375 242.61758 57.185547 242.9375 57.185547 242.9375 L 58.294922 246.98828 L 58.935547 246.80664 C 58.955547 246.80664 61.114299 246.21789 63.654297 246.08789 L 64.285156 246.05664 L 64.285156 241.52734 L 62.525391 241.52734 C 62.395391 241.32734 62.316015 241.21656 62.166016 240.97656 C 62.316015 240.74656 62.395391 240.63773 62.525391 240.42773 L 64.285156 240.42773 L 64.285156 238.6582 C 64.475156 238.5182 64.595938 238.43758 64.835938 238.26758 z M 64.845703 249.58789 C 71.195697 249.58789 75.416016 251.89774 75.416016 253.42773 C 75.406016 254.41773 71.295697 256.31836 64.845703 256.31836 C 58.635709 256.31836 54.594922 254.55711 54.294922 253.53711 C 54.284922 253.49711 54.275391 253.45773 54.275391 253.42773 C 54.275391 251.89774 58.485709 249.58789 64.845703 249.58789 z M 56.294922 256.34766 C 57.604921 256.83766 59.234845 257.1882 60.964844 257.4082 C 61.544843 258.4982 61.584453 259.77844 61.564453 260.39844 C 60.594454 260.78844 59.646093 261.33664 58.746094 262.05664 C 58.746094 262.02664 58.755859 261.9968 58.755859 261.9668 C 58.875859 260.2068 58.296014 258.45797 57.166016 257.16797 C 56.896016 256.86797 56.604922 256.58766 56.294922 256.34766 z M 73.416016 256.35742 C 73.106016 256.59742 72.804922 256.87773 72.544922 257.17773 C 71.404923 258.45773 70.825313 260.2068 70.945312 261.9668 C 70.945312 261.9968 70.955078 262.02664 70.955078 262.05664 C 70.045079 261.33664 69.104765 260.77844 68.134766 260.39844 C 68.114766 259.77844 68.144376 258.4982 68.734375 257.4082 C 70.464373 257.1882 72.086017 256.83742 73.416016 256.35742 z M 77.115234 256.36719 C 79.675232 256.19719 81.985002 256.89789 83.625 258.33789 C 85.244998 259.75789 86.195235 261.85821 86.365234 264.4082 C 86.515234 266.7182 85.895703 268.94821 85.345703 270.9082 C 84.885704 272.5582 84.454922 274.11828 84.544922 275.48828 C 84.674922 277.44828 85.274844 278.0768 85.464844 278.2168 L 85.666016 278.37695 L 85.925781 278.35742 C 88.025779 278.21742 88.354297 279.73844 88.404297 280.39844 C 88.464297 281.39844 87.554218 282.23836 86.324219 282.31836 C 84.184221 282.45836 83.575547 279.98844 83.435547 277.89844 C 83.325547 276.20844 83.636094 274.81726 83.996094 273.19727 C 84.426093 271.30727 84.905078 269.16773 84.705078 266.17773 C 84.505078 263.07774 82.934294 260.61797 80.404297 259.41797 C 78.424299 258.47797 76.184452 258.50828 74.814453 259.48828 L 74.824219 259.49805 C 74.05422 259.99805 73.595703 260.84797 73.595703 261.66797 C 73.595703 261.71797 73.595469 261.76664 73.605469 261.80664 L 74.935547 261.7168 C 74.905547 261.1968 75.325079 260.43695 76.205078 260.37695 C 76.675078 260.34695 77.086016 260.47758 77.416016 260.76758 C 77.886015 261.17758 78.085469 261.79703 78.105469 262.20703 C 78.205469 263.71703 77.24453 264.75719 75.644531 264.86719 C 74.744532 264.92719 73.945937 264.67844 73.335938 264.14844 C 72.715938 263.59844 72.345156 262.80766 72.285156 261.84766 C 72.195156 260.43766 72.654688 259.03758 73.554688 258.01758 C 74.414687 257.04758 75.655236 256.46719 77.115234 256.36719 z M 52.595703 256.37695 C 54.055702 256.47695 55.295782 257.05664 56.175781 258.05664 C 57.07578 259.07664 57.535312 260.47672 57.445312 261.88672 C 57.385313 262.84672 57.014531 263.6375 56.394531 264.1875 C 55.784532 264.7175 54.995937 264.9682 54.085938 264.9082 C 52.495939 264.7982 51.525 263.75805 51.625 262.24805 C 51.655 261.83805 51.844454 261.21664 52.314453 260.80664 C 52.644453 260.51664 53.045391 260.38797 53.525391 260.41797 C 54.40539 260.47797 54.834922 261.23781 54.794922 261.75781 L 56.125 261.84766 L 56.125 261.70703 C 56.125 260.88703 55.66453 260.03711 54.894531 259.53711 L 54.904297 259.52734 C 53.534298 258.54734 51.284451 258.52703 49.314453 259.45703 C 46.784456 260.65703 45.225625 263.1168 45.015625 266.2168 C 44.815625 269.20679 45.30461 271.34828 45.724609 273.23828 C 46.084609 274.84828 46.405156 276.2375 46.285156 277.9375 C 46.145156 280.0275 45.534529 282.49742 43.394531 282.35742 C 42.144532 282.25742 41.234688 281.4082 41.304688 280.4082 C 41.344687 279.7482 41.675158 278.22719 43.785156 278.36719 L 44.044922 278.38672 L 44.246094 278.22656 C 44.426094 278.07656 45.036016 277.45804 45.166016 275.49805 C 45.256016 274.12805 44.825234 272.56797 44.365234 270.91797 C 43.815235 268.95797 43.195703 266.72797 43.345703 264.41797 C 43.515703 261.86797 44.455939 259.76765 46.085938 258.34766 C 47.725936 256.90766 50.035706 256.20695 52.595703 256.37695 z M 62.464844 257.55664 C 63.254843 257.61664 64.045938 257.64844 64.835938 257.64844 C 65.625937 257.64844 66.425079 257.61664 67.205078 257.55664 C 66.885078 258.44664 66.805156 259.32656 66.785156 259.97656 C 66.145157 259.82656 65.495937 259.75781 64.835938 259.75781 C 64.175938 259.75781 63.524765 259.82656 62.884766 259.97656 C 62.874766 259.33656 62.784843 258.44664 62.464844 257.55664 z M 51.025391 260.22656 C 50.605391 260.76656 50.325156 261.45844 50.285156 262.14844 C 50.275156 262.24844 50.275391 262.34727 50.275391 262.44727 C 50.275391 264.53726 51.764377 266.0768 53.984375 266.2168 C 54.364375 266.2468 54.735703 266.22797 55.095703 266.16797 C 54.645704 266.85797 54.204921 267.59672 53.794922 268.38672 C 51.414924 272.92671 49.935859 278.70704 49.505859 284.95703 C 48.65586 283.84703 47.324998 283.02703 45.625 282.95703 C 46.564999 282.22703 47.415469 280.78828 47.605469 277.98828 C 47.625469 277.72828 47.625 277.46703 47.625 277.20703 C 47.625 275.67703 47.315859 274.33773 47.005859 272.92773 C 46.64586 271.34774 46.285156 269.71812 46.285156 267.57812 C 46.285156 267.16813 46.294219 266.73711 46.324219 266.28711 C 46.564219 262.72711 48.645236 261.21672 49.865234 260.63672 C 50.245234 260.45672 50.635391 260.32656 51.025391 260.22656 z M 78.666016 260.23828 C 79.056015 260.32828 79.444219 260.46844 79.824219 260.64844 C 81.044218 261.22844 83.135235 262.72688 83.365234 266.29688 C 83.395234 266.74687 83.404297 267.17789 83.404297 267.58789 C 83.404297 269.72789 83.035781 271.3575 82.675781 272.9375 C 82.355782 274.3475 82.054688 275.68828 82.054688 277.23828 C 82.054688 277.48828 82.065938 277.74758 82.085938 278.01758 C 82.275937 280.81758 83.124688 282.25828 84.054688 282.98828 C 82.354689 283.05828 81.02578 283.87828 80.175781 284.98828 C 79.755782 278.71829 78.274529 272.93843 75.894531 268.39844 C 75.484532 267.60844 75.045703 266.86773 74.595703 266.17773 C 74.955703 266.23773 75.324844 266.25656 75.714844 266.22656 C 77.934842 266.07656 79.416016 264.54703 79.416016 262.45703 C 79.416016 262.35703 79.414297 262.2582 79.404297 262.1582 C 79.364297 261.4682 79.086015 260.77828 78.666016 260.23828 z M 64.845703 261.07812 C 68.535699 261.07812 72.044612 263.89782 74.724609 269.00781 C 76.164608 271.76781 77.266094 275.00711 77.996094 278.53711 L 57.564453 265.05664 C 59.754451 262.46664 62.255706 261.07813 64.845703 261.07812 z M 64.404297 261.53711 L 64.404297 262.20703 L 63.734375 262.20703 L 63.734375 262.86719 L 64.404297 262.86719 L 64.404297 264.19727 L 65.175781 264.19727 L 65.175781 262.86719 L 65.845703 262.86719 L 65.845703 262.20703 L 65.175781 262.20703 L 65.175781 261.53711 L 64.404297 261.53711 z M 67.666016 264.30664 C 67.266016 264.30664 66.944375 264.40766 66.734375 264.59766 C 66.524375 264.78766 66.416016 265.03813 66.416016 265.32812 C 66.416016 265.64812 66.52586 265.88711 66.755859 266.03711 C 66.895859 266.12711 67.025703 266.20734 67.345703 266.27734 L 67.675781 266.34766 C 67.815781 266.37766 67.865781 266.40727 67.925781 266.44727 L 67.974609 266.47656 C 68.044609 266.51656 68.074219 266.5782 68.074219 266.6582 C 68.074219 266.7982 68.005703 266.88727 67.845703 266.94727 C 67.755703 266.97727 67.636094 266.99805 67.496094 266.99805 C 67.216094 266.99805 66.884922 266.80727 66.794922 266.69727 L 66.734375 266.62695 L 66.384766 267.22656 L 66.425781 267.26758 C 66.645781 267.44758 67.015626 267.6582 67.515625 267.6582 C 67.925625 267.6582 68.244844 267.55719 68.464844 267.36719 C 68.694844 267.16719 68.804688 266.91695 68.804688 266.62695 C 68.804688 266.33695 68.705625 266.10703 68.515625 265.95703 L 68.496094 265.9375 C 68.396094 265.8575 68.304219 265.78656 68.074219 265.72656 L 67.544922 265.60742 C 67.394922 265.56742 67.344922 265.53781 67.294922 265.50781 L 67.255859 265.48828 C 67.175859 265.44828 67.144531 265.38664 67.144531 265.30664 C 67.144531 265.20664 67.185625 265.13789 67.265625 265.08789 C 67.355625 265.02789 67.475 264.99805 67.625 264.99805 C 67.875 264.99805 68.135391 265.14734 68.275391 265.27734 L 68.335938 265.32812 L 68.685547 264.7168 L 68.634766 264.67773 C 68.404766 264.50773 68.056015 264.30664 67.666016 264.30664 z M 62.085938 264.41797 L 62.085938 267.59766 L 62.855469 267.59766 L 62.855469 264.41797 L 62.085938 264.41797 z M 63.496094 264.41797 L 63.496094 267.59766 L 64.265625 267.59766 L 64.265625 266.23828 L 65.304688 266.23828 L 65.304688 267.59766 L 66.074219 267.59766 L 66.074219 264.41797 L 65.304688 264.41797 L 65.304688 265.57812 L 64.265625 265.57812 L 64.265625 264.41797 L 63.496094 264.41797 z M 56.755859 266.10742 L 78.324219 280.35742 C 78.504219 281.44742 78.645859 282.5575 78.755859 283.6875 L 55.375 268.25781 C 55.815 267.47781 56.27586 266.75742 56.755859 266.10742 z M 55.166016 269.69727 L 57.666016 271.35742 L 57.666016 274.89844 C 57.286016 274.51844 56.416016 273.63672 56.416016 273.63672 C 56.416016 273.63672 55.536015 274.50672 55.166016 274.88672 L 55.166016 269.69727 z M 53.835938 271.4375 L 53.835938 278.10742 L 56.416016 275.52734 C 56.956015 276.06734 58.996094 278.12695 58.996094 278.12695 L 58.996094 272.23828 L 71.505859 280.48828 L 61.404297 280.48828 C 61.404297 280.48828 63.44461 282.52836 63.974609 283.06836 C 63.44461 283.60836 61.404297 285.64844 61.404297 285.64844 L 78.904297 285.64844 C 78.954297 286.49844 78.984375 287.34703 78.984375 288.20703 L 50.705078 288.20703 C 50.756174 282.04069 51.856998 276.20494 53.835938 271.4375 z M 56.404297 278.57812 L 55.085938 279.89844 L 53.214844 279.89844 L 53.214844 281.76758 L 51.894531 283.08789 L 53.214844 284.4082 L 53.214844 286.27734 L 55.085938 286.27734 L 56.404297 287.59766 L 57.724609 286.27734 L 59.595703 286.27734 L 59.595703 284.4082 L 60.916016 283.08789 L 59.595703 281.76758 L 59.595703 279.89844 L 57.724609 279.89844 L 56.404297 278.57812 z M 56.404297 280.45703 L 57.175781 281.22656 L 58.265625 281.22656 L 58.265625 282.31836 L 59.035156 283.08789 L 58.265625 283.85742 L 58.265625 284.94727 L 57.175781 284.94727 L 56.404297 285.7168 C 56.124297 285.4268 55.634766 284.94727 55.634766 284.94727 L 54.544922 284.94727 L 54.544922 283.85742 L 53.775391 283.08789 L 54.544922 282.31836 L 54.544922 281.22656 L 55.634766 281.22656 C 55.634766 281.22656 56.124297 280.74703 56.404297 280.45703 z M 64.595703 281.82812 L 73.515625 281.82812 L 77.304688 284.32812 L 64.595703 284.32812 L 65.845703 283.07812 C 65.845703 283.07812 64.975703 282.19812 64.595703 281.82812 z M 45.375 284.28711 C 47.994997 284.28711 49.214844 286.46727 49.214844 287.94727 C 49.214844 289.78726 47.914998 291.11719 46.125 291.11719 C 44.565002 291.11719 43.554688 290.15773 43.554688 288.67773 C 43.554688 288.43773 43.614609 288.13742 43.724609 287.85742 C 43.754609 287.78742 43.794219 287.70844 43.824219 287.64844 C 43.874219 287.55844 43.935859 287.46695 44.005859 287.37695 C 44.275859 287.02695 44.695157 286.76758 45.285156 286.76758 C 46.085155 286.76758 46.535469 287.36742 46.605469 287.85742 C 46.605469 287.89742 46.615234 287.93656 46.615234 287.97656 L 47.945312 287.97656 C 47.945312 286.74656 46.87492 285.42773 45.294922 285.42773 C 44.124923 285.42773 43.244609 286.04672 42.724609 286.88672 C 42.724609 286.88672 42.724844 286.89844 42.714844 286.89844 C 42.614844 287.05844 42.534844 287.22844 42.464844 287.39844 C 42.154844 288.11844 42.015625 288.95695 42.015625 289.87695 C 42.015625 292.15695 42.854923 294.83781 44.044922 296.75781 C 45.84492 299.67781 47.516095 302.31742 48.496094 303.85742 C 47.516095 303.60742 45.955078 303.19727 45.955078 303.19727 C 45.955078 303.19727 45.37539 304.5975 45.025391 305.4375 C 44.115392 303.4675 42.434999 299.60687 41.375 295.79688 C 40.795001 293.73688 40.404297 291.69656 40.404297 289.97656 C 40.394297 289.04656 40.505469 288.03719 40.855469 287.11719 L 41.005859 286.75781 C 41.055859 286.65781 41.106016 286.54703 41.166016 286.45703 C 41.866015 285.20703 43.145002 284.28711 45.375 284.28711 z M 84.314453 284.30664 C 86.544451 284.28664 87.815391 285.20703 88.525391 286.45703 C 88.585391 286.55703 88.635547 286.65781 88.685547 286.75781 C 88.735547 286.87781 88.795938 286.99719 88.835938 287.11719 C 89.185937 288.02719 89.294922 289.04805 89.294922 289.99805 C 89.294922 291.71805 88.894218 293.75836 88.324219 295.81836 C 87.25422 299.62836 85.58578 303.48703 84.675781 305.45703 C 84.325782 304.61703 83.734375 303.2168 83.734375 303.2168 C 83.734375 303.2168 82.175312 303.62695 81.195312 303.87695 C 82.185312 302.32695 83.844533 299.69734 85.644531 296.77734 C 86.82453 294.85735 87.675781 292.17844 87.675781 289.89844 C 87.675781 288.97844 87.534609 288.12797 87.224609 287.41797 C 87.154609 287.24797 87.074609 287.07797 86.974609 286.91797 L 86.974609 286.9082 C 86.46461 286.0682 85.584296 285.44727 84.404297 285.44727 C 82.814298 285.44727 81.755859 286.76805 81.755859 287.99805 L 83.085938 287.99805 C 83.085938 287.95805 83.085703 287.91695 83.095703 287.87695 C 83.165703 287.37695 83.614298 286.78711 84.404297 286.78711 C 84.994296 286.78711 85.415547 287.04844 85.685547 287.39844 C 85.755547 287.48844 85.815234 287.56797 85.865234 287.66797 C 85.905234 287.73797 85.934844 287.80695 85.964844 287.87695 C 86.084844 288.15695 86.134766 288.44727 86.134766 288.69727 C 86.134766 290.17726 85.124452 291.13672 83.564453 291.13672 C 81.774455 291.13672 80.474609 289.8068 80.474609 287.9668 C 80.474609 286.4868 81.694456 284.30664 84.314453 284.30664 z M 36.734375 287.11719 L 39.445312 287.11719 C 39.185313 287.95719 39.054688 288.92805 39.054688 289.99805 C 39.054688 291.76805 39.436094 293.83821 39.996094 295.9082 C 39.836094 296.9582 39.625312 297.77781 39.445312 298.50781 L 39.416016 298.62695 C 39.286016 299.16695 39.064219 299.70688 38.824219 300.29688 C 38.374219 301.40687 37.875 302.66774 37.875 304.17773 C 37.875 306.88773 39.575239 310.37664 44.365234 311.30664 C 47.025232 311.82664 48.894378 312.46688 51.734375 314.54688 C 53.424373 315.78687 54.344219 316.96797 55.074219 317.91797 C 55.334218 318.24797 55.574453 318.56789 55.814453 318.83789 C 59.29445 322.69789 63.924454 322.89844 64.814453 322.89844 C 65.704452 322.89844 70.334457 322.69789 73.814453 318.83789 C 74.054453 318.56789 74.304688 318.25797 74.554688 317.91797 C 75.284687 316.96797 76.204533 315.79687 77.894531 314.54688 C 80.734528 312.46688 82.605628 311.81664 85.265625 311.30664 C 90.05562 310.37664 91.765625 306.88773 91.765625 304.17773 C 91.765625 302.66774 91.254687 301.41687 90.804688 300.29688 C 90.574688 299.71688 90.354844 299.16695 90.214844 298.62695 L 90.185547 298.50781 C 90.005547 297.77781 89.804765 296.9582 89.634766 295.9082 C 90.194765 293.83821 90.574219 291.77805 90.574219 289.99805 C 90.574219 288.92805 90.445547 287.96719 90.185547 287.11719 L 92.894531 287.11719 L 92.894531 291.02734 C 92.894531 294.99734 93.344376 297.44711 94.484375 299.78711 C 95.114374 301.07711 95.345703 302.8882 95.345703 304.1582 C 95.345703 305.6682 94.925152 309.53672 91.035156 312.63672 C 89.275158 314.04672 87.806092 314.3575 86.246094 314.6875 C 85.076095 314.9375 83.864842 315.19672 82.464844 315.88672 C 79.434847 317.39672 78.325624 318.84844 77.515625 319.89844 L 77.375 320.07812 C 72.935004 325.80812 67.09492 326.42773 64.794922 326.42773 C 62.494924 326.42773 56.654839 325.80812 52.214844 320.07812 L 52.074219 319.89844 C 51.26422 318.84844 50.154997 317.39672 47.125 315.88672 C 45.725001 315.18672 44.515702 314.9275 43.345703 314.6875 C 41.785705 314.3575 40.314686 314.04672 38.554688 312.63672 C 34.664691 309.52672 34.246094 305.6682 34.246094 304.1582 C 34.246094 302.8882 34.475469 301.06711 35.105469 299.78711 C 36.295468 297.45711 36.734375 294.99734 36.734375 291.02734 L 36.734375 287.11719 z M 35.404297 288.06836 L 35.404297 291.03711 L 35.404297 291.44727 L 33.714844 289.75781 L 35.404297 288.06836 z M 94.275391 288.06836 L 95.964844 289.75781 L 94.275391 291.44727 L 94.275391 291.03711 L 94.275391 288.06836 z M 50.714844 289.54688 L 78.974609 289.54688 C 78.864609 296.67687 77.364607 303.33672 74.724609 308.38672 C 72.044612 313.49671 68.535699 316.31836 64.845703 316.31836 C 61.155707 316.31836 57.644841 313.49671 54.964844 308.38672 C 52.324846 303.33672 50.824844 296.67687 50.714844 289.54688 z M 64.845703 290.25781 L 63.585938 291.92773 L 61.404297 291.47656 L 62.765625 294.4375 C 61.875626 295.0475 61.224609 296.0682 61.224609 297.4082 C 61.224609 297.5082 61.234375 297.67773 61.234375 297.67773 L 62.755859 297.67773 L 62.765625 298.64844 L 62.015625 299.32812 L 58.365234 294.98828 L 52.644531 293.39844 C 52.274532 294.07844 52.064453 294.85727 52.064453 295.69727 C 52.064453 297.49726 53.045861 299.05672 54.505859 299.88672 C 54.455859 300.09672 54.425781 300.30711 54.425781 300.53711 C 54.395781 301.66711 55.134298 302.63828 56.154297 302.98828 L 56.144531 303.11719 C 56.144531 304.54719 57.306095 305.70703 58.746094 305.70703 L 59.185547 305.70703 L 59.185547 306.7168 C 59.175547 307.8368 58.644452 308.8268 57.814453 309.4668 C 58.064453 309.8468 58.325938 310.19734 58.585938 310.52734 C 59.745936 309.64734 60.484375 308.25726 60.484375 306.69727 L 60.484375 304.41797 L 58.746094 304.41797 C 58.026094 304.41797 57.455078 303.83695 57.455078 303.12695 L 57.464844 302.98828 C 57.464844 302.40828 57.074921 301.90805 56.544922 301.74805 C 56.044922 301.56805 55.695313 301.08711 55.695312 300.53711 C 55.695312 300.50711 55.694609 300.37781 55.724609 300.25781 C 55.744609 300.18781 55.785156 300.09719 55.785156 299.86719 C 55.785156 299.37719 55.515234 298.95828 55.115234 298.73828 C 54.055235 298.13828 53.345703 296.9975 53.345703 295.6875 C 53.345703 295.4375 53.366016 295.1968 53.416016 294.9668 L 57.585938 296.14844 L 61.855469 301.2168 L 64.064453 299.25781 L 64.064453 296.33789 L 62.705078 296.33789 C 62.705078 296.33789 63.325939 295.01758 64.835938 295.01758 C 66.235936 295.01758 66.945547 296.02656 67.185547 296.97656 L 68.195312 300.76758 L 72.074219 296.1582 L 76.246094 294.97656 C 76.296094 295.20656 76.324219 295.44727 76.324219 295.69727 C 76.324219 296.99726 75.614686 298.13805 74.554688 298.74805 C 74.154688 298.96805 73.884766 299.38695 73.884766 299.87695 C 73.884766 300.09695 73.925313 300.18758 73.945312 300.26758 C 73.975312 300.38758 73.974609 300.50688 73.974609 300.54688 C 73.974609 301.10687 73.615 301.58781 73.125 301.75781 C 72.595001 301.91781 72.205078 302.40805 72.205078 302.99805 L 72.214844 303.13672 C 72.214844 303.84672 71.636015 304.42773 70.916016 304.42773 L 67.714844 304.42773 C 67.714844 304.42773 67.825701 306.69735 66.095703 308.52734 C 65.705704 308.93734 65.115626 310.04797 65.765625 311.41797 C 66.445624 312.85797 67.824219 313.49805 67.824219 313.49805 C 68.324218 313.23805 69.115234 312.60742 69.115234 312.60742 C 67.945236 312.26742 67.315781 311.51836 66.925781 310.81836 C 66.625782 310.27836 66.784297 309.65664 67.154297 309.30664 C 67.664296 308.82664 68.256094 307.8075 68.496094 307.1875 C 68.806093 306.3975 68.925781 305.7168 68.925781 305.7168 L 70.904297 305.7168 C 72.334295 305.7168 73.505859 304.55695 73.505859 303.12695 L 73.505859 302.99805 C 74.535858 302.64805 75.275391 301.67711 75.275391 300.53711 C 75.275391 300.31711 75.245312 300.09672 75.195312 299.88672 C 76.655311 299.05672 77.634766 297.48726 77.634766 295.69727 C 77.634766 294.86727 77.424687 294.08844 77.054688 293.39844 L 71.335938 294.98828 L 68.765625 298.04688 C 68.765625 298.04688 68.554531 297.3882 68.394531 296.6582 C 68.044532 295.1082 66.935547 294.44727 66.935547 294.44727 L 68.294922 291.48828 L 66.074219 291.92773 L 64.845703 290.25781 z M 49.416016 291.03711 C 49.696015 297.8271 51.225393 304.15711 53.775391 309.03711 C 56.695388 314.6071 60.615942 317.67773 64.835938 317.67773 C 69.045933 317.67773 72.974534 314.6071 75.894531 309.03711 C 78.454529 304.14711 79.97586 297.8271 80.255859 291.03711 C 81.055859 291.93711 82.214689 292.47656 83.554688 292.47656 C 84.604686 292.47656 85.505782 292.13836 86.175781 291.56836 C 85.925781 293.08836 85.346093 294.72766 84.496094 296.09766 C 81.666097 300.68765 79.164531 304.56742 79.144531 304.60742 L 78.224609 306.03711 C 78.224609 306.03711 82.145548 305.01664 82.935547 304.80664 C 83.235547 305.53664 84.554688 308.69727 84.554688 308.69727 L 85.205078 307.39844 C 85.345078 307.12844 87.32547 303.12835 88.855469 298.56836 C 88.875469 298.65836 88.895781 298.74813 88.925781 298.82812 L 88.955078 298.94727 C 89.105078 299.57726 89.355703 300.19711 89.595703 300.78711 C 90.015703 301.83711 90.455078 302.91797 90.455078 304.16797 C 90.455078 304.96797 90.195151 308.98828 85.035156 309.98828 C 82.245159 310.52828 80.154763 311.2468 77.134766 313.4668 C 75.294767 314.8168 74.27539 316.12789 73.525391 317.08789 C 73.275391 317.41789 73.055703 317.69773 72.845703 317.92773 C 69.735706 321.37773 65.624218 321.54688 64.824219 321.54688 C 64.03422 321.54688 59.914684 321.37773 56.804688 317.92773 C 56.594688 317.69773 56.375 317.41789 56.125 317.08789 C 55.385001 316.12789 54.365623 314.8168 52.515625 313.4668 C 49.495628 311.2468 47.405232 310.53828 44.615234 309.98828 C 39.45524 308.98828 39.195313 304.95797 39.195312 304.16797 C 39.225312 302.91797 39.654219 301.83711 40.074219 300.78711 C 40.314219 300.18711 40.56461 299.56727 40.724609 298.94727 L 40.755859 298.82812 C 40.775859 298.73813 40.794453 298.65836 40.814453 298.56836 C 42.344452 303.12835 44.324844 307.12844 44.464844 307.39844 L 45.115234 308.69727 C 45.115234 308.69727 46.434375 305.53664 46.734375 304.80664 C 47.534374 305.01664 51.445313 306.03711 51.445312 306.03711 L 50.525391 304.60742 C 50.505391 304.56742 47.995778 300.68765 45.175781 296.09766 C 44.325782 294.72766 43.756093 293.08836 43.496094 291.56836 C 44.166093 292.13836 45.065235 292.47656 46.115234 292.47656 C 47.455233 292.47656 48.616016 291.92711 49.416016 291.03711 z M 64.824219 292.53711 L 65.425781 293.38672 L 66.035156 293.26758 L 65.755859 293.88672 C 65.755859 293.88672 65.245937 293.76758 64.835938 293.76758 C 64.425938 293.76758 63.916016 293.88672 63.916016 293.88672 L 63.634766 293.26758 L 64.224609 293.38672 L 64.824219 292.53711 z M 61.144531 307.95703 C 61.144531 309.37703 60.305702 310.59844 59.095703 311.14844 C 59.405703 311.50844 59.724922 311.83695 60.044922 312.12695 C 61.48492 311.29695 62.455078 309.74703 62.455078 307.95703 L 61.144531 307.95703 z M 63.115234 309.22656 C 63.125234 310.82656 62.044452 312.17766 60.564453 312.59766 C 60.594453 312.61766 60.614531 312.63797 60.644531 312.66797 C 61.054531 312.98797 61.455469 313.26828 61.855469 313.48828 C 63.385467 312.67828 64.425781 311.07656 64.425781 309.22656 L 63.115234 309.22656 z "
   inkscape:export-filename="unc_logo.png"
   inkscape:export-xdpi="96"
   inkscape:export-ydpi="96" /></svg>
