<?xml version="1.0" encoding="UTF-8" standalone="no"?>
<!-- Generator: Adobe Illustrator 24.0.1, SVG Export Plug-In . SVG Version: 6.00 Build 0)  -->

<svg
   version="1.1"
   id="Capa_1"
   x="0px"
   y="0px"
   viewBox="0 0 66.041016 91.099609"
   xml:space="preserve"
   sodipodi:docname="logo_eps.svg"
   inkscape:export-filename="unc_logo_full.pdf"
   inkscape:export-xdpi="96"
   inkscape:export-ydpi="96"
   inkscape:version="1.3 (1:1.3+202307231459+0e150ed6c4)"
   width="66.041016"
   height="91.099609"
   xmlns:inkscape="http://www.inkscape.org/namespaces/inkscape"
   xmlns:sodipodi="http://sodipodi.sourceforge.net/DTD/sodipodi-0.dtd"
   xmlns="http://www.w3.org/2000/svg"
   xmlns:svg="http://www.w3.org/2000/svg"><defs
   id="defs29">&#10;	&#10;	&#10;</defs><sodipodi:namedview
   id="namedview29"
   pagecolor="#ffffff"
   bordercolor="#000000"
   borderopacity="0.25"
   inkscape:showpageshadow="2"
   inkscape:pageopacity="0.0"
   inkscape:pagecheckerboard="0"
   inkscape:deskcolor="#d1d1d1"
   inkscape:zoom="0.9521767"
   inkscape:cx="271.48322"
   inkscape:cy="128.12748"
   inkscape:window-width="1878"
   inkscape:window-height="1019"
   inkscape:window-x="42"
   inkscape:window-y="24"
   inkscape:window-maximized="1"
   inkscape:current-layer="Capa_1" />&#10;<style
   type="text/css"
   id="style1">&#10;	.st0{fill:#121212;}&#10;	.st1{fill:#003764;}&#10;</style>&#10;&#10;<path
   id="path58"
   class="st1"
   d="M 33.019531,0 31.140624,1.33984 V 2.45898 H 30 L 28.75,4.33984 30,6.21875 h 1.140624 v 1.9414 c -1.589998,0.12 -2.960469,0.3886 -3.730468,0.5586 -0.14,-0.52 -0.270157,-0.96977 -0.410156,-1.50977 0.299999,-0.08 0.941406,-0.25976 0.941406,-0.25976 l 0.638672,-1.86914 -1.5,-1.28125 c 0,0 -0.639454,0.17976 -0.939454,0.25976 -0.08,-0.3 -0.259765,-0.94922 -0.259765,-0.94922 L 24.019531,2.49023 22.730468,3.96875 c 0,0 0.179766,0.65117 0.259766,0.95117 -0.3,0.08 -0.949219,0.25977 -0.949219,0.25977 l -0.621094,1.85937 1.480469,1.29102 c 0,0 0.639454,-0.17977 0.939453,-0.25977 0.16,0.58 0.311172,1.13992 0.451172,1.66992 -1.259999,0.54 -2.290157,1.20844 -2.910156,1.64844 -0.18,-0.3 -0.230391,-0.38992 -0.400391,-0.66992 0.21,-0.13 0.710938,-0.45899 0.710938,-0.45899 L 21.791016,8.43945 20.169922,7.5293 c 0,0 -0.568594,0.34046 -0.808593,0.48046 -0.14,-0.24 -0.470704,-0.77929 -0.470704,-0.77929 l -1.90039,-0.0918 -0.810547,1.71094 5.111328,8.66992 c 0.2,0.4 0.549532,0.76938 1.019531,1.10938 -0.469999,-0.13 -0.970235,-0.22001 -1.490234,-0.25 -2.909997,-0.19 -5.560705,0.62101 -7.470703,2.29101 -1.889998,1.66 -2.989688,4.07024 -3.179688,6.99023 -0.02,0.27 -0.0293,0.55032 -0.0293,0.82032 0,2.23 0.579845,4.28891 1.089844,6.1289 0.41,1.47 0.769531,2.74985 0.769532,3.83985 0,0.1 2.34e-4,0.20078 -0.0098,0.30078 -0.06,0.9 -0.229844,1.38914 -0.339844,1.61914 -2.419997,0.01 -3.409766,1.75102 -3.509766,3.29101 -0.01,0.06 -0.0098,0.12946 -0.0098,0.18946 0,1.41 1.029767,2.60976 2.509765,3.00976 -1.059998,0.47 -1.890703,1.23954 -2.470703,2.26954 H 3.960937 L 0,53.08984 3.509765,56.59961 c -0.11,2.49 -0.539376,4.25945 -1.359375,5.93945 -0.919999,1.88 -0.990234,4.27094 -0.990234,4.96094 0,1.71 0.470551,6.04953 4.810547,9.51953 2.009998,1.61 3.709845,1.96055 5.339843,2.31055 1.139999,0.24 2.208986,0.46984 3.458985,1.08984 2.759997,1.38 3.720235,2.62891 4.490234,3.62891 l 0.150391,0.1914 c 4.799995,6.19 11.140862,6.85938 13.630859,6.85938 2.489998,0 8.828911,-0.66938 13.628906,-6.85938 l 0.150391,-0.1914 c 0.769999,-1 1.730237,-2.25891 4.490234,-3.62891 1.249999,-0.62 2.328986,-0.84984 3.458985,-1.08984 1.639998,-0.35 3.331799,-0.71055 5.341797,-2.31055 4.339995,-3.47 4.808593,-7.81953 4.808593,-9.51953 0,-0.69 -0.07023,-3.08094 -0.990234,-4.96094 -0.819999,-1.68 -1.248438,-3.44945 -1.398437,-5.93945 l 3.509765,-3.50977 -3.960937,-3.96093 h -4.208985 c -0.579999,-1.03 -1.410704,-1.79954 -2.470703,-2.26954 1.479999,-0.4 2.509766,-1.59976 2.509766,-3.00976 0,-0.06 2.34e-4,-0.12946 -0.0098,-0.18946 -0.1,-1.53999 -1.089768,-3.28101 -3.509766,-3.29101 -0.109999,-0.24 -0.279843,-0.71914 -0.339843,-1.61914 -0.01,-0.1 -0.0098,-0.20078 -0.0098,-0.30078 0,-1.09 0.359532,-2.36985 0.769531,-3.83985 0.51,-1.83999 1.089844,-3.8989 1.089844,-6.1289 0,-0.27 -0.0093,-0.54032 -0.0293,-0.82032 -0.19,-2.90999 -1.289689,-5.33023 -3.179687,-6.99023 -1.909998,-1.67 -4.560706,-2.49101 -7.470703,-2.29101 -0.52,0.02999 -1.020235,0.12 -1.490235,0.25 0.46,-0.33 0.809766,-0.69985 1.009766,-1.08985 L 49.861257,8.84961 49.05071,7.13867 47.150319,7.23047 c 0,0 -0.330703,0.53929 -0.470703,0.77929 -0.24,-0.14 -0.808594,-0.48046 -0.808594,-0.48046 l -1.621093,0.91015 0.09961,1.82031 c 0,0 0.500938,0.31899 0.710937,0.45899 -0.169999,0.28 -0.22039,0.36992 -0.40039,0.66992 -0.62,-0.44 -1.650158,-1.10844 -2.910156,-1.64844 0.139999,-0.53 0.291172,-1.08992 0.451171,-1.66992 0.3,0.08 0.939453,0.25977 0.939453,0.25977 L 44.621023,7.03906 43.99993,5.17969 c 0,0 -0.64922,-0.17977 -0.949219,-0.25977 0.08,-0.3 0.259765,-0.95117 0.259765,-0.95117 L 42.019461,2.49023 40.160086,3.10937 c 0,0 -0.179766,0.64922 -0.259766,0.94922 -0.3,-0.08 -0.939453,-0.25976 -0.939453,-0.25976 l -1.5,1.28125 0.638672,1.86914 c 0,0 0.641406,0.17976 0.941406,0.25976 -0.15,0.54 -0.270156,0.97977 -0.410156,1.50977 -0.759999,-0.17 -2.13047,-0.4386 -3.730469,-0.5586 v -1.9414 h 1.140625 l 1.25,-1.87891 -1.25,-1.88086 H 34.90032 V 1.33984 Z m 0.01172,1.59961 c 0.239999,0.17 0.348828,0.25062 0.548828,0.39062 v 1.76953 h 1.759765 c 0.14,0.2 0.211329,0.30883 0.361328,0.54883 -0.149999,0.23 -0.231328,0.34078 -0.361328,0.55078 h -1.759765 v 4.5293 l 0.630859,0.03125 c 2.539997,0.13 4.69875,0.70875 4.71875,0.71875 l 0.640625,0.18164 1.109375,-4.05078 c 0,0 -1.188828,-0.32992 -1.548828,-0.41992 -0.05,-0.15 -0.06109,-0.17961 -0.121094,-0.34961 0.13,-0.11 0.16125,-0.14024 0.28125,-0.24024 0.36,0.1 1.539063,0.41993 1.539063,0.41993 0,0 0.319922,-1.18102 0.419922,-1.54102 0.149999,-0.05 0.179609,-0.05914 0.349609,-0.11914 0.11,0.13 0.140234,0.1593 0.240234,0.2793 -0.1,0.36 -0.419922,1.54101 -0.419922,1.54101 0,0 1.181016,0.32992 1.541016,0.41992 0.05,0.15 0.05938,0.17961 0.109375,0.34961 -0.13,0.11 -0.159297,0.14024 -0.279297,0.24024 -0.36,-0.1 -1.550781,-0.41992 -1.550781,-0.41992 L 40.13086,10.53906 40.701172,10.75 c 2.069998,0.78 3.689219,2.09937 3.699219,2.10937 l 0.59961,0.49024 0.40039,-0.66016 1.439453,-2.41015 c 0,0 -0.93875,-0.59907 -1.21875,-0.78907 -0.01,-0.13 -0.01148,-0.16054 -0.02148,-0.31054 0.11,-0.06 0.120703,-0.0711 0.220703,-0.1211 0.31,0.19 1.291016,0.77149 1.291016,0.77149 0,0 0.599062,-1.00055 0.789062,-1.31055 0.13,-0.01 0.160782,-0.0098 0.300781,-0.0098 0.06,0.13 0.06891,0.15954 0.128907,0.26954 -0.24,0.4 -2.568908,4.35984 -3.878907,6.58984 -1.439998,-2.15 -6.091411,-3.7793 -11.441406,-3.7793 -5.319995,0 -9.970158,1.6193 -11.410156,3.7793 -1.309999,-2.23 -3.638907,-6.17984 -3.878906,-6.58984 0.06,-0.12 0.06891,-0.13954 0.128906,-0.26954 0.14,0.01 0.170781,0.0098 0.300781,0.0098 0.18,0.31 0.791016,1.31055 0.791016,1.31055 0,0 0.979063,-0.59149 1.289062,-0.77149 0.1,0.06 0.120469,0.0711 0.230469,0.1211 -0.01,0.15 -0.0095,0.17054 -0.01953,0.31054 -0.28,0.18 -1.220703,0.78907 -1.220703,0.78907 l 1.839843,3.07031 0.59961,-0.49024 c 0.02,-0.01 1.631174,-1.33937 3.701172,-2.10937 l 0.568353,-0.21094 -1.109375,-4.10937 c 0,0 -1.190782,0.32992 -1.550781,0.41992 -0.12,-0.1 -0.149297,-0.13024 -0.279297,-0.24024 0.05,-0.16 0.06938,-0.19961 0.109375,-0.34961 0.36,-0.1 1.541016,-0.41992 1.541015,-0.41992 0,0 -0.329921,-1.18101 -0.419921,-1.54101 0.1,-0.12 0.130234,-0.1493 0.240234,-0.2793 0.16,0.05 0.19961,0.06914 0.349609,0.11914 0.1,0.36 0.419922,1.54102 0.419922,1.54102 0,0 1.189063,-0.32993 1.539063,-0.41993 0.12,0.1 0.15125,0.13024 0.28125,0.24024 -0.06,0.17 -0.07109,0.19961 -0.121094,0.34961 -0.36,0.1 -1.548828,0.41992 -1.548828,0.41992 l 1.109375,4.05078 0.640625,-0.18164 c 0.02,0 2.178752,-0.58875 4.71875,-0.71875 l 0.630859,-0.03125 v -4.5293 h -1.759765 c -0.13,-0.2 -0.209376,-0.31078 -0.359375,-0.55078 0.149999,-0.23 0.229375,-0.33883 0.359375,-0.54883 h 1.759765 V 1.99023 c 0.19,-0.14 0.310782,-0.22062 0.550783,-0.39062 z m 0.0098,11.32031 c 6.349994,0 10.570313,2.30985 10.570313,3.83984 -0.01,0.99 -4.120319,2.89063 -10.570313,2.89063 -6.209994,0 -10.250781,-1.76125 -10.550781,-2.78125 -0.01,-0.04 -0.01953,-0.07938 -0.01953,-0.10938 0,-1.52999 4.210318,-3.83984 10.570311,-3.83984 z m -8.550781,6.75977 c 1.309999,0.49 2.939923,0.84054 4.669922,1.06054 0.579999,1.09 0.619609,2.37024 0.599609,2.99024 -0.969999,0.39 -1.91836,0.9382 -2.818359,1.6582 0,-0.03 0.0098,-0.05984 0.0098,-0.08984 0.12,-1.76 -0.459845,-3.50883 -1.589843,-4.79883 -0.27,-0.3 -0.561094,-0.58031 -0.871094,-0.82031 z m 17.121094,0.0098 c -0.31,0.24 -0.611094,0.52031 -0.871094,0.82031 -1.139999,1.28 -1.719609,3.02907 -1.59961,4.78907 0,0.03 0.0098,0.05984 0.0098,0.08984 -0.909999,-0.72 -1.850313,-1.2782 -2.820312,-1.6582 -0.02,-0.62 0.0096,-1.90024 0.599609,-2.99024 1.729998,-0.22 3.351642,-0.57078 4.681641,-1.05078 z m 3.699218,0.0098 c 2.559998,-0.17 4.869768,0.5307 6.509766,1.9707 1.619998,1.42 2.570235,3.52032 2.740234,6.07031 0.15,2.31 -0.469531,4.54001 -1.019531,6.5 -0.459999,1.65 -0.890781,3.21008 -0.800781,4.58008 0.13,1.96 0.729922,2.58852 0.919922,2.72852 l 0.201172,0.16015 0.259765,-0.01953 c 2.099998,-0.14 2.428516,1.38102 2.478516,2.04102 0.06,1 -0.850079,1.83992 -2.080078,1.91992 -2.139998,0.14 -2.748672,-2.32992 -2.888672,-4.41992 -0.11,-1.69 0.200547,-3.08118 0.560547,-4.70117 0.429999,-1.89 0.908984,-4.02954 0.708984,-7.01954 -0.2,-3.09999 -1.770784,-5.55976 -4.300781,-6.75976 -1.979998,-0.94 -4.219845,-0.90969 -5.589844,0.07031 l 0.0098,0.0098 c -0.769999,0.5 -1.228516,1.34992 -1.228516,2.16992 0,0.05 -2.34e-4,0.09867 0.0098,0.13867 l 1.330078,-0.08984 c -0.03,-0.52 0.389532,-1.27985 1.269531,-1.33985 0.47,-0.03 0.880938,0.10063 1.210938,0.39063 0.469999,0.41 0.669453,1.02945 0.689453,1.43945 0.1,1.51 -0.860939,2.55016 -2.460938,2.66016 -0.899999,0.06 -1.698594,-0.18875 -2.308593,-0.71875 -0.62,-0.55 -0.990782,-1.34078 -1.050782,-2.30078 -0.09,-1.41 0.369532,-2.81008 1.269532,-3.83008 0.859999,-0.97 2.100548,-1.55039 3.560546,-1.65039 z m -24.519531,0.0098 c 1.459999,0.1 2.700079,0.67969 3.580078,1.67969 0.899999,1.02 1.359531,2.42008 1.269531,3.83008 -0.06,0.96 -0.430781,1.75078 -1.050781,2.30078 -0.609999,0.53 -1.398594,0.7807 -2.308593,0.7207 -1.589999,-0.11 -2.560938,-1.15015 -2.460938,-2.66015 0.03,-0.41 0.219454,-1.03141 0.689453,-1.44141 0.33,-0.29 0.730938,-0.41867 1.210938,-0.38867 0.879999,0.06 1.309531,0.81984 1.269531,1.33984 l 1.330078,0.08985 v -0.14063 c 0,-0.82 -0.46047,-1.66992 -1.230469,-2.16992 l 0.0098,-0.0098 c -1.369999,-0.98 -3.619846,-1.00031 -5.589844,-0.07031 -2.529997,1.2 -4.088828,3.65977 -4.298828,6.75977 -0.2,2.98999 0.288985,5.13148 0.708984,7.02148 0.36,1.61 0.680547,2.99922 0.560547,4.69922 -0.14,2.09 -0.750627,4.55992 -2.890625,4.41992 -1.249999,-0.1 -2.159843,-0.94922 -2.089843,-1.94922 0.04,-0.66 0.37047,-2.18101 2.480468,-2.04101 l 0.259766,0.01953 0.201172,-0.16016 c 0.18,-0.15 0.789922,-0.76852 0.919922,-2.72851 0.09,-1.37 -0.340782,-2.93008 -0.800782,-4.58008 -0.549999,-1.96 -1.169531,-4.19 -1.019531,-6.5 0.17,-2.55 1.110236,-4.65032 2.740235,-6.07031 1.639998,-1.44 3.949768,-2.14071 6.509765,-1.97071 z m 9.869141,1.17969 c 0.789999,0.06 1.581094,0.0918 2.371094,0.0918 0.789999,0 1.589141,-0.0318 2.36914,-0.0918 -0.32,0.89 -0.399922,1.76992 -0.419922,2.41992 -0.639999,-0.15 -1.289219,-0.21875 -1.949218,-0.21875 -0.66,0 -1.311173,0.06875 -1.951172,0.21875 -0.01,-0.64 -0.09992,-1.52992 -0.419922,-2.41992 z m -11.439489,2.66981 c -0.42,0.54 -0.700235,1.23188 -0.740235,1.92188 -0.01,0.1 -0.0098,0.19883 -0.0098,0.29883 0,2.08999 1.488986,3.62953 3.708984,3.76953 0.38,0.03 0.751328,0.01117 1.111328,-0.04883 -0.449999,0.69 -0.890782,1.42875 -1.300781,2.21875 -2.379998,4.53999 -3.859063,10.32032 -4.289063,16.57031 -0.849999,-1.11 -2.180861,-1.93 -3.880859,-2 0.939999,-0.73 1.790469,-2.16875 1.980469,-4.96875 0.02,-0.26 0.01953,-0.52125 0.01953,-0.78125 0,-1.53 -0.309141,-2.8693 -0.619141,-4.2793 -0.359999,-1.57999 -0.720703,-3.20961 -0.720703,-5.34961 0,-0.40999 0.0091,-0.84101 0.03906,-1.29101 0.24,-3.56 2.321017,-5.07039 3.541015,-5.65039 0.38,-0.18 0.770157,-0.31016 1.160157,-0.41016 z m 27.640625,0.01172 c 0.389999,0.09 0.778203,0.23016 1.158203,0.41016 1.219999,0.58 3.311016,2.07844 3.541015,5.64844 0.03,0.44999 0.03906,0.88101 0.03906,1.29101 0,2.14 -0.368516,3.76961 -0.728516,5.34961 -0.319999,1.41 -0.621093,2.75078 -0.621093,4.30078 0,0.25 0.01125,0.5093 0.03125,0.7793 0.189999,2.8 1.03875,4.2407 1.96875,4.9707 -1.699999,0.07 -3.028908,0.89 -3.878907,2 -0.419999,-6.26999 -1.901252,-12.04985 -4.28125,-16.58984 -0.409999,-0.79 -0.848828,-1.53071 -1.298828,-2.22071 0.36,0.06 0.729141,0.07883 1.119141,0.04883 2.219998,-0.15 3.701172,-1.67953 3.701172,-3.76953 0,-0.1 -0.0017,-0.19883 -0.01172,-0.29883 -0.04,-0.69 -0.318282,-1.37992 -0.738281,-1.91992 z m -13.820313,0.83984 c 3.689996,0 7.198909,2.8197 9.878906,7.92969 1.439999,2.76 2.541485,5.9993 3.271485,9.5293 L 25.759765,28.38867 c 2.189998,-2.59 4.691253,-3.97851 7.28125,-3.97852 z m -0.441406,0.45899 v 0.66992 h -0.669922 v 0.66016 h 0.669922 v 1.33008 h 0.771484 v -1.33008 h 0.669922 v -0.66016 h -0.669922 v -0.66992 z m 3.261719,2.76953 c -0.4,0 -0.721641,0.10102 -0.931641,0.29102 -0.21,0.19 -0.318359,0.44047 -0.318359,0.73046 0,0.32 0.109844,0.55899 0.339843,0.70899 0.14,0.09 0.269844,0.17023 0.589844,0.24023 l 0.330078,0.07032 c 0.14,0.03 0.19,0.05961 0.25,0.09961 l 0.04883,0.02929 c 0.07,0.04 0.09961,0.10164 0.09961,0.18164 0,0.14 -0.06852,0.22907 -0.228516,0.28907 -0.09,0.03 -0.209609,0.05078 -0.349609,0.05078 -0.28,0 -0.611172,-0.19078 -0.701172,-0.30078 l -0.06055,-0.07032 -0.349609,0.59961 0.04102,0.04102 c 0.22,0.18 0.589845,0.39062 1.089844,0.39062 0.41,0 0.729219,-0.10101 0.949219,-0.29101 0.23,-0.2 0.339844,-0.45024 0.339844,-0.74024 0,-0.29 -0.09906,-0.51992 -0.289063,-0.66992 l -0.01953,-0.01953 c -0.1,-0.08 -0.191875,-0.15094 -0.421875,-0.21094 l -0.529297,-0.11914 c -0.15,-0.04 -0.2,-0.06961 -0.25,-0.09961 l -0.03906,-0.01953 c -0.08,-0.04 -0.111328,-0.10164 -0.111328,-0.18164 0,-0.1 0.04109,-0.16875 0.121094,-0.21875 0.09,-0.06 0.209375,-0.08984 0.359375,-0.08984 0.25,0 0.510391,0.14929 0.650391,0.27929 l 0.06055,0.05078 0.349609,-0.61132 -0.05078,-0.03907 c -0.23,-0.17 -0.578751,-0.37109 -0.96875,-0.37109 z M 30.28125,27.75 v 3.17969 h 0.769531 V 27.75 Z m 1.410156,0 v 3.17969 h 0.769531 V 29.57031 H 33.5 v 1.35938 h 0.769531 V 27.75 H 33.5 v 1.16015 H 32.460937 V 27.75 Z m -6.740235,1.68945 21.56836,14.25 c 0.18,1.09 0.32164,2.20008 0.43164,3.33008 L 23.570312,31.58984 c 0.44,-0.78 0.90086,-1.50039 1.380859,-2.15039 z m -1.589843,3.58985 2.5,1.66015 v 3.54102 c -0.38,-0.38 -1.25,-1.26172 -1.25,-1.26172 0,0 -0.880001,0.87 -1.25,1.25 z m -1.330078,1.74023 v 6.66992 l 2.580078,-2.58008 c 0.539999,0.54 2.580078,2.59961 2.580078,2.59961 v -5.88867 l 12.509765,8.25 H 29.599609 c 0,0 2.040313,2.04008 2.570312,2.58008 -0.529999,0.54 -2.570312,2.58008 -2.570312,2.58008 h 17.5 c 0.05,0.85 0.08008,1.69859 0.08008,2.55859 H 18.90039 c 0.0511,-6.16634 1.15192,-12.00209 3.13086,-16.76953 z m 2.568359,7.14062 -1.318359,1.32032 h -1.871094 v 1.86914 l -1.320313,1.32031 1.320313,1.32031 v 1.86914 h 1.871094 l 1.318359,1.32032 1.320312,-1.32032 h 1.871094 v -1.86914 l 1.320313,-1.32031 -1.320313,-1.32031 v -1.86914 h -1.871094 z m 0,1.87891 0.771484,0.76953 h 1.089844 v 1.0918 l 0.769531,0.76953 -0.769531,0.76953 v 1.08985 h -1.089844 l -0.771484,0.76953 c -0.28,-0.29 -0.769531,-0.76953 -0.769531,-0.76953 h -1.089844 v -1.08985 l -0.769531,-0.76953 0.769531,-0.76953 v -1.0918 h 1.089844 c 0,0 0.489531,-0.47953 0.769531,-0.76953 z m 8.191406,1.37109 h 8.919922 l 3.789063,2.5 H 32.791015 l 1.25,-1.25 c 0,0 -0.87,-0.88 -1.25,-1.25 z m -19.220703,2.45899 c 2.619997,0 3.839844,2.18016 3.839844,3.66016 0,1.83999 -1.299846,3.16992 -3.089844,3.16992 -1.559998,0 -2.570312,-0.95946 -2.570312,-2.43946 0,-0.24 0.05992,-0.54031 0.169921,-0.82031 0.03,-0.07 0.06961,-0.14898 0.09961,-0.20898 0.05,-0.09 0.11164,-0.18149 0.18164,-0.27149 0.27,-0.35 0.689298,-0.60937 1.279297,-0.60937 0.799999,0 1.250313,0.59984 1.320313,1.08984 0,0.04 0.0098,0.07914 0.0098,0.11914 h 1.330078 c 0,-1.23 -1.070392,-2.54883 -2.65039,-2.54883 -1.169999,0 -2.050313,0.61899 -2.570313,1.45899 0,0 2.35e-4,0.01172 -0.0098,0.01172 -0.1,0.16 -0.18,0.33 -0.25,0.5 -0.31,0.72 -0.449219,1.55851 -0.449219,2.47851 0,2.28 0.839298,4.96086 2.029297,6.88086 1.799998,2.92 3.471173,5.55961 4.451172,7.09961 -0.979999,-0.25 -2.541016,-0.66015 -2.541016,-0.66015 0,0 -0.579688,1.40023 -0.929687,2.24023 -0.909999,-1.97 -2.590392,-5.83063 -3.650391,-9.64062 -0.579999,-2.06 -0.970703,-4.10032 -0.970703,-5.82032 -0.01,-0.93 0.101172,-1.93937 0.451172,-2.85937 l 0.15039,-0.35938 c 0.05,-0.1 0.100157,-0.21078 0.160157,-0.30078 0.699999,-1.25 1.978986,-2.16992 4.208984,-2.16992 z m 38.939453,0.01953 c 2.229998,-0.02 3.500938,0.90039 4.210938,2.15039 0.06,0.1 0.110156,0.20078 0.160156,0.30078 0.05,0.12 0.110391,0.23938 0.150391,0.35938 0.349999,0.91 0.458984,1.93086 0.458984,2.88086 0,1.72 -0.400704,3.76031 -0.970703,5.82031 -1.069999,3.81 -2.738439,7.66867 -3.648438,9.63867 -0.349999,-0.84 -0.941406,-2.24023 -0.941406,-2.24023 0,0 -1.559063,0.41015 -2.539063,0.66015 0.99,-1.55 2.649221,-4.17961 4.449219,-7.09961 1.179999,-1.91999 2.03125,-4.5989 2.03125,-6.8789 0,-0.92 -0.141172,-1.77047 -0.451172,-2.48047 -0.07,-0.17 -0.15,-0.34 -0.25,-0.5 v -0.0098 c -0.509999,-0.84 -1.390313,-1.46093 -2.570312,-1.46093 -1.589999,0 -2.648438,1.32078 -2.648438,2.55078 h 1.330079 c 0,-0.04 -2.35e-4,-0.0811 0.0098,-0.1211 0.07,-0.5 0.518595,-1.08984 1.308594,-1.08984 0.589999,0 1.01125,0.26133 1.28125,0.61133 0.07,0.09 0.129687,0.16953 0.179687,0.26953 0.04,0.07 0.06961,0.13898 0.09961,0.20898 0.12,0.28 0.169922,0.57032 0.169922,0.82032 0,1.47999 -1.010314,2.43945 -2.570313,2.43945 -1.789998,0 -3.089844,-1.32992 -3.089844,-3.16992 0,-1.48 1.219847,-3.66016 3.839844,-3.66016 z M 4.929687,50.44922 H 7.640624 C 7.380625,51.28922 7.25,52.26008 7.25,53.33008 c 0,1.77 0.381406,3.84016 0.941406,5.91015 -0.16,1.05 -0.370782,1.86961 -0.550782,2.59961 l -0.0293,0.11914 c -0.13,0.54 -0.351797,1.07993 -0.591797,1.66993 -0.45,1.10999 -0.949219,2.37086 -0.949219,3.88085 0,2.71 1.700239,6.19891 6.490234,7.12891 2.659998,0.52 4.529144,1.16024 7.369141,3.24024 1.689998,1.23999 2.609844,2.42109 3.339844,3.37109 0.259999,0.33 0.500234,0.64992 0.740234,0.91992 3.479997,3.86 8.110001,4.06055 9,4.06055 0.889999,0 5.520004,-0.20055 9,-4.06055 0.24,-0.27 0.490235,-0.57992 0.740235,-0.91992 0.729999,-0.95 1.649845,-2.1211 3.339843,-3.37109 2.839997,-2.08 4.711097,-2.73024 7.371094,-3.24024 4.789995,-0.93 6.5,-4.41891 6.5,-7.12891 0,-1.50999 -0.510938,-2.76086 -0.960937,-3.88085 -0.23,-0.58 -0.449844,-1.12993 -0.589844,-1.66993 l -0.0293,-0.11914 c -0.18,-0.73 -0.380782,-1.54961 -0.550781,-2.59961 0.559999,-2.06999 0.939453,-4.13015 0.939453,-5.91015 0,-1.07 -0.128672,-2.03086 -0.388672,-2.88086 h 2.708984 v 3.91015 c 0,3.97 0.449845,6.41977 1.589844,8.75977 0.629999,1.29 0.861328,3.10109 0.861328,4.37109 0,1.51 -0.420551,5.37852 -4.310547,8.47852 -1.759998,1.41 -3.229064,1.72078 -4.789062,2.05078 -1.169999,0.25 -2.381252,0.50922 -3.78125,1.19922 -3.029997,1.51 -4.13922,2.96172 -4.949219,4.01172 l -0.140625,0.17968 c -4.439996,5.73 -10.28008,6.34961 -12.580078,6.34961 -2.299998,0 -8.140083,-0.61961 -12.580078,-6.34961 l -0.140625,-0.17968 c -0.809999,-1.05 -1.919222,-2.50172 -4.949219,-4.01172 -1.399999,-0.7 -2.609298,-0.95922 -3.779297,-1.19922 -1.559998,-0.33 -3.031017,-0.64078 -4.791015,-2.05078 -3.889997,-3.11 -4.308594,-6.96852 -4.308594,-8.47852 0,-1.27 0.229375,-3.09109 0.859375,-4.37109 1.189999,-2.33 1.628906,-4.78977 1.628906,-8.75977 z m -1.330078,0.95117 v 2.96875 0.41016 L 1.910156,53.08984 Z m 58.871094,0 1.689453,1.68945 -1.689453,1.68946 v -0.41016 z m -43.560547,1.47852 h 28.259765 c -0.11,7.12999 -1.610002,13.78984 -4.25,18.83984 -2.679997,5.10999 -6.18891,7.93164 -9.878906,7.93164 -3.689996,0 -7.200862,-2.82165 -9.880859,-7.93164 -2.639998,-5.05 -4.14,-11.70985 -4.25,-18.83984 z m 14.130859,0.71093 -1.259765,1.66992 -2.181641,-0.45117 1.361328,2.96094 c -0.889999,0.61 -1.541016,1.6307 -1.541016,2.9707 0,0.1 0.0098,0.26953 0.0098,0.26953 h 1.521484 l 0.0098,0.97071 -0.75,0.67968 -3.650391,-4.33984 -5.720703,-1.58984 c -0.369999,0.68 -0.580078,1.45883 -0.580078,2.29883 0,1.79999 0.981408,3.35945 2.441406,4.18945 -0.05,0.21 -0.08008,0.42039 -0.08008,0.65039 -0.03,1.13 0.708517,2.10117 1.728516,2.45117 l -0.0098,0.12891 c 0,1.43 1.161564,2.58984 2.601563,2.58984 h 0.439453 v 1.00977 c -0.01,1.12 -0.541095,2.11 -1.371094,2.75 0.25,0.38 0.511485,0.73054 0.771485,1.06054 1.159998,-0.88 1.898437,-2.27008 1.898437,-3.83007 V 67.75 h -1.738281 c -0.72,0 -1.291016,-0.58102 -1.291016,-1.29102 l 0.0098,-0.13867 c 0,-0.58 -0.389923,-1.08023 -0.919922,-1.24023 -0.5,-0.18 -0.849609,-0.66094 -0.84961,-1.21094 0,-0.03 -7.03e-4,-0.1593 0.0293,-0.2793 0.02,-0.07 0.06055,-0.16062 0.06055,-0.39062 0,-0.49 -0.269922,-0.90891 -0.669922,-1.12891 -1.059999,-0.6 -1.769531,-1.74078 -1.769531,-3.05078 0,-0.25 0.02031,-0.4907 0.07031,-0.7207 l 4.169922,1.18164 4.269531,5.06836 2.208984,-1.95899 v -2.91992 h -1.359375 c 0,0 0.620861,-1.32031 2.13086,-1.32031 1.399998,0 2.109609,1.00898 2.349609,1.95898 l 1.009765,3.79102 3.878907,-4.60938 4.171875,-1.18164 c 0.05,0.23 0.07813,0.47071 0.07813,0.72071 0,1.29999 -0.709533,2.44078 -1.769531,3.05078 -0.4,0.22 -0.669922,0.6389 -0.669922,1.1289 0,0.22 0.04055,0.31063 0.06055,0.39063 0.03,0.12 0.0293,0.2393 0.0293,0.2793 0,0.55999 -0.359609,1.04093 -0.849609,1.21093 -0.529999,0.16 -0.919922,0.65024 -0.919922,1.24024 l 0.0098,0.13867 c 0,0.71 -0.578829,1.29101 -1.298828,1.29101 h -3.201172 c 0,0 0.110857,2.26962 -1.619141,4.09961 -0.389999,0.41 -0.980077,1.52063 -0.330078,2.89063 0.679999,1.44 2.058594,2.08008 2.058594,2.08008 0.499999,-0.26 1.291015,-0.89063 1.291015,-0.89063 -1.169998,-0.34 -1.799453,-1.08906 -2.189453,-1.78906 -0.299999,-0.54 -0.141484,-1.16172 0.228516,-1.51172 0.509999,-0.48 1.101797,-1.49914 1.341797,-2.11914 0.309999,-0.79 0.429687,-1.4707 0.429687,-1.4707 h 1.978516 c 1.429998,0 2.601562,-1.15985 2.601562,-2.58985 v -0.1289 c 1.029999,-0.35 1.769532,-1.32094 1.769532,-2.46094 0,-0.22 -0.03008,-0.44039 -0.08008,-0.65039 1.459999,-0.83 2.439454,-2.39946 2.439454,-4.18945 0,-0.83 -0.210079,-1.60883 -0.580078,-2.29883 l -5.71875,1.58984 -2.570313,3.0586 c 0,0 -0.211094,-0.65868 -0.371094,-1.38868 -0.349999,-1.55 -1.458984,-2.21093 -1.458984,-2.21093 l 1.359375,-2.95899 -2.220703,0.43945 z m -15.429687,0.7793 c 0.279999,6.78999 1.809377,13.12 4.359375,18 2.919997,5.56999 6.840551,8.64062 11.060547,8.64062 4.209995,0 8.138596,-3.07063 11.058593,-8.64062 2.559998,-4.89 4.081329,-11.21001 4.361328,-18 0.8,0.9 1.95883,1.43945 3.298829,1.43945 1.049998,0 1.951094,-0.3382 2.621093,-0.9082 -0.25,1.52 -0.829688,3.1593 -1.679687,4.5293 -2.829997,4.58999 -5.331563,8.46976 -5.351563,8.50976 l -0.919922,1.42969 c 0,0 3.920939,-1.02047 4.710938,-1.23047 0.3,0.73 1.619141,3.89063 1.619141,3.89063 l 0.65039,-1.29883 c 0.14,-0.27 2.120392,-4.27009 3.650391,-8.83008 0.02,0.09 0.04031,0.17977 0.07031,0.25976 l 0.0293,0.11915 c 0.15,0.62999 0.400625,1.24984 0.640625,1.83984 0.42,1.05 0.859375,2.13086 0.859375,3.38086 0,0.8 -0.259927,4.82031 -5.419922,5.82031 -2.789997,0.54 -4.880393,1.25852 -7.90039,3.47852 -1.839999,1.35 -2.859376,2.66109 -3.609375,3.62109 -0.25,0.33 -0.469688,0.60984 -0.679688,0.83984 -3.109997,3.45 -7.221485,3.61915 -8.021484,3.61915 -0.789999,0 -4.909535,-0.16915 -8.019531,-3.61915 -0.21,-0.23 -0.429688,-0.50984 -0.679688,-0.83984 -0.739999,-0.96 -1.759377,-2.27109 -3.609375,-3.62109 -3.019997,-2.22 -5.110393,-2.92852 -7.900391,-3.47852 -5.159994,-1 -5.419921,-5.03031 -5.419922,-5.82031 0.03,-1.25 0.458907,-2.33086 0.878907,-3.38086 0.24,-0.6 0.490391,-1.21984 0.65039,-1.83984 l 0.03125,-0.11915 c 0.02,-0.08999 0.03859,-0.16976 0.05859,-0.25976 1.529999,4.55999 3.510391,8.56008 3.650391,8.83008 l 0.65039,1.29883 c 0,0 1.319141,-3.16063 1.619141,-3.89063 0.799999,0.21 4.710938,1.23047 4.710937,1.23047 L 18.7207,67.93945 c -0.02,-0.04 -2.529613,-3.91977 -5.34961,-8.50976 -0.849999,-1.37 -1.419688,-3.0093 -1.679687,-4.5293 0.669999,0.57 1.569141,0.9082 2.61914,0.9082 1.339999,0 2.500782,-0.54945 3.300782,-1.43945 z m 15.408203,1.5 0.601562,0.84961 0.609375,-0.11914 -0.279297,0.61914 c 0,0 -0.509922,-0.11914 -0.919921,-0.11914 -0.41,0 -0.919922,0.11914 -0.919922,0.11914 l -0.28125,-0.61914 0.589843,0.11914 z m -3.679688,15.41992 c 0,1.42 -0.838829,2.64141 -2.048828,3.19141 0.31,0.36 0.629219,0.68851 0.949219,0.97851 1.439998,-0.83 2.410156,-2.37992 2.410156,-4.16992 z m 1.970703,1.26953 c 0.01,1.6 -1.070782,2.9511 -2.550781,3.3711 0.03,0.02 0.05008,0.0403 0.08008,0.0703 0.41,0.32 0.810938,0.60031 1.210938,0.82031 1.529998,-0.81 2.570312,-2.41172 2.570312,-4.26172 z"
   inkscape:export-filename="unc_logo.png"
   inkscape:export-xdpi="96"
   inkscape:export-ydpi="96" /></svg>
